<svg width="70" height="70" viewBox="0 0 70 70" fill="none" xmlns="http://www.w3.org/2000/svg">
<circle cx="35" cy="35" r="35" fill="url(#paint0_linear_338_51)"/>
<path fill-rule="evenodd" clip-rule="evenodd" d="M49.25 46.0833C49.6536 46.0838 50.0418 46.2383 50.3352 46.5153C50.6287 46.7924 50.8052 47.171 50.8289 47.5739C50.8525 47.9767 50.7215 48.3734 50.4625 48.6829C50.2034 48.9923 49.836 49.1912 49.4353 49.2389L49.25 49.25H20.75C20.3465 49.2495 19.9583 49.095 19.6649 48.818C19.3714 48.5409 19.1948 48.1623 19.1712 47.7594C19.1475 47.3566 19.2786 46.9599 19.5376 46.6504C19.7966 46.3409 20.1641 46.1421 20.5648 46.0944L20.75 46.0833H49.25ZM46.0834 22.3333C46.8823 22.3331 47.6518 22.6348 48.2376 23.178C48.8234 23.7212 49.1822 24.4658 49.2421 25.2625L49.25 25.5V41.3333C49.2503 42.1322 48.9486 42.9017 48.4053 43.4875C47.8621 44.0733 47.1175 44.4321 46.3209 44.4921L46.0834 44.5H23.9167C23.1178 44.5002 22.3483 44.1985 21.7625 43.6553C21.1767 43.112 20.8179 42.3675 20.758 41.5708L20.75 41.3333V25.5C20.7498 24.7011 21.0515 23.9316 21.5947 23.3458C22.138 22.76 22.8825 22.4011 23.6792 22.3412L23.9167 22.3333H46.0834ZM46.0834 25.5H23.9167V41.3333H46.0834V25.5Z" fill="white"/>
<defs>
<linearGradient id="paint0_linear_338_51" x1="3.86944" y1="52.6653" x2="64.3806" y2="12.7847" gradientUnits="userSpaceOnUse">
<stop stop-color="#1869FF"/>
<stop offset="0.778531" stop-color="#0E3F99"/>
</linearGradient>
</defs>
</svg>
