<svg width="80" height="80" viewBox="0 0 80 80" fill="none" xmlns="http://www.w3.org/2000/svg">
<circle cx="40" cy="40" r="40" fill="url(#paint0_linear_338_49)"/>
<path d="M51.6667 30H48.3333C48.3333 25.3334 44.6667 21.6667 40 21.6667C35.3333 21.6667 31.6667 25.3334 31.6667 30H28.3333C26.5 30 25 31.5 25 33.3334V53.3334C25 55.1667 26.5 56.6667 28.3333 56.6667H51.6667C53.5 56.6667 55 55.1667 55 53.3334V33.3334C55 31.5 53.5 30 51.6667 30ZM40 25C42.8333 25 45 27.1667 45 30H35C35 27.1667 37.1667 25 40 25ZM51.6667 53.3334H28.3333V33.3334H51.6667V53.3334ZM40 40C37.1667 40 35 37.8334 35 35H31.6667C31.6667 39.6667 35.3333 43.3334 40 43.3334C44.6667 43.3334 48.3333 39.6667 48.3333 35H45C45 37.8334 42.8333 40 40 40Z" fill="white"/>
<defs>
<linearGradient id="paint0_linear_338_49" x1="12" y1="6" x2="66" y2="68.8" gradientUnits="userSpaceOnUse">
<stop stop-color="#1869FF"/>
<stop offset="0.778531" stop-color="#0E3F99"/>
</linearGradient>
</defs>
</svg>
