<svg width="70" height="70" viewBox="0 0 70 70" fill="none" xmlns="http://www.w3.org/2000/svg">
<circle cx="35" cy="35" r="35" fill="url(#paint0_linear_338_50)"/>
<path d="M50.625 23.75H43.2344V22.4062C43.2344 21.1589 42.7389 19.9626 41.8569 19.0806C40.9749 18.1986 39.7786 17.7031 38.5312 17.7031H30.4688C29.2214 17.7031 28.0251 18.1986 27.1431 19.0806C26.2611 19.9626 25.7656 21.1589 25.7656 22.4062V23.75H18.375C17.484 23.75 16.6296 24.1039 15.9996 24.7339C15.3696 25.3639 15.0156 26.2184 15.0156 27.1094V45.25C15.0156 46.141 15.3696 46.9954 15.9996 47.6254C16.6296 48.2554 17.484 48.6094 18.375 48.6094H50.625C51.516 48.6094 52.3704 48.2554 53.0004 47.6254C53.6304 46.9954 53.9844 46.141 53.9844 45.25V27.1094C53.9844 26.2184 53.6304 25.3639 53.0004 24.7339C52.3704 24.1039 51.516 23.75 50.625 23.75ZM29.7969 22.4062C29.7969 22.2281 29.8677 22.0572 29.9937 21.9312C30.1197 21.8052 30.2906 21.7344 30.4688 21.7344H38.5312C38.7094 21.7344 38.8803 21.8052 39.0063 21.9312C39.1323 22.0572 39.2031 22.2281 39.2031 22.4062V23.75H29.7969V22.4062ZM49.9531 27.7812V33.1562H45.9219V32.4844C45.9219 31.9498 45.7095 31.4371 45.3315 31.0591C44.9535 30.6811 44.4408 30.4688 43.9062 30.4688C43.3717 30.4688 42.859 30.6811 42.481 31.0591C42.103 31.4371 41.8906 31.9498 41.8906 32.4844V33.1562H27.1094V32.4844C27.1094 31.9498 26.897 31.4371 26.519 31.0591C26.141 30.6811 25.6283 30.4688 25.0938 30.4688C24.5592 30.4688 24.0465 30.6811 23.6685 31.0591C23.2905 31.4371 23.0781 31.9498 23.0781 32.4844V33.1562H19.0469V27.7812H49.9531ZM19.0469 44.5781V37.1875H23.0781V37.8594C23.0781 38.394 23.2905 38.9066 23.6685 39.2846C24.0465 39.6626 24.5592 39.875 25.0938 39.875C25.6283 39.875 26.141 39.6626 26.519 39.2846C26.897 38.9066 27.1094 38.394 27.1094 37.8594V37.1875H41.8906V37.8594C41.8906 38.394 42.103 38.9066 42.481 39.2846C42.859 39.6626 43.3717 39.875 43.9062 39.875C44.4408 39.875 44.9535 39.6626 45.3315 39.2846C45.7095 38.9066 45.9219 38.394 45.9219 37.8594V37.1875H49.9531V44.5781H19.0469Z" fill="white"/>
<defs>
<linearGradient id="paint0_linear_338_50" x1="3.86944" y1="52.6653" x2="64.3806" y2="12.7847" gradientUnits="userSpaceOnUse">
<stop stop-color="#1869FF"/>
<stop offset="0.778531" stop-color="#0E3F99"/>
</linearGradient>
</defs>
</svg>
