<svg width="233" height="297" viewBox="0 0 233 297" fill="none" xmlns="http://www.w3.org/2000/svg">
<path d="M119.911 171.057L122.207 189.288L141.811 177.969L119.911 171.057Z" fill="#CEC6BE"/>
<path d="M150.925 199.52C150.925 191.446 146.003 182.067 139.933 178.571C138.399 177.686 136.577 177.234 135.131 177.237C133.996 177.24 131.096 177.349 128.088 179.204C124.629 181.337 124.164 186.18 124.164 186.18L136.512 211.483C136.512 211.483 140.488 213.429 144.574 211.199C147.117 209.809 148.651 207.515 149.349 206.243C149.656 205.686 150.121 204.562 150.259 204.14C150.688 202.827 150.925 201.279 150.925 199.52Z" fill="#3F352F"/>
<path d="M123.796 189.722C123.796 197.796 128.718 207.175 134.788 210.671C140.859 214.167 145.779 210.456 145.779 202.382C145.779 194.307 140.859 184.929 134.788 181.433C128.717 177.938 123.796 181.649 123.796 189.722Z" fill="#4F443D"/>
<path d="M125.922 191.046C125.922 197.431 129.815 204.848 134.615 207.613C139.416 210.378 143.307 207.444 143.307 201.058C143.307 194.671 139.416 187.254 134.615 184.489C129.813 181.727 125.922 184.661 125.922 191.046Z" fill="#F7F2EC"/>
<path d="M134.312 185.818C138.623 188.301 142.119 194.963 142.119 200.698C142.119 206.432 138.623 209.069 134.312 206.586C130 204.103 126.504 197.441 126.504 191.706C126.504 185.97 130 183.334 134.312 185.818ZM136.004 187.741C135.813 187.465 134.969 186.793 134.352 186.456C133.681 186.089 132.967 185.547 131.46 185.66C131.135 185.684 130.803 185.876 130.642 186.047C130.398 186.305 130.446 186.628 130.72 187.156C130.978 187.655 131.353 188.373 131.708 188.901C131.885 189.164 131.993 189.045 132.358 189.078C132.725 189.112 133.122 189.14 133.409 189.264C134.121 189.568 134.645 189.902 135.144 190.304C135.395 190.506 135.519 190.439 135.62 190.296C135.89 189.918 136.092 189.396 136.249 188.878C136.345 188.565 136.323 188.203 136.004 187.741ZM130.154 193.807C130.154 196.862 132.016 200.41 134.312 201.732C136.609 203.054 138.471 201.651 138.471 198.596C138.471 195.54 136.609 191.993 134.312 190.67C132.015 189.349 130.154 190.753 130.154 193.807ZM140.983 196.207C140.408 193.778 139.825 192.878 139.353 191.975C138.917 191.141 138.213 190.09 137.989 189.904C137.614 189.594 137.416 189.712 137.292 189.995C137.086 190.46 136.901 191 136.817 191.585C136.785 191.804 136.802 192.026 137.013 192.339C137.433 192.96 137.828 193.649 138.284 194.643C138.468 195.044 138.65 195.658 138.823 196.223C138.994 196.788 138.977 197.007 139.188 197.176C139.613 197.516 140.145 197.806 140.514 198.004C140.904 198.213 141.093 198.155 141.125 197.661C141.147 197.337 141.108 196.732 140.983 196.207ZM139.248 206.07C139.456 206.067 140.033 205.559 140.358 205.049C140.712 204.495 141.184 204.042 141.386 201.942C141.431 201.489 141.369 200.874 141.291 200.507C141.173 199.95 140.96 199.721 140.578 199.603C140.216 199.49 139.695 199.335 139.298 199.327C139.099 199.322 139.155 199.573 139.067 200.028C138.978 200.483 138.888 200.981 138.759 201.25C138.438 201.914 138.131 202.305 137.788 202.604C137.615 202.754 137.634 202.976 137.705 203.239C137.895 203.939 138.185 204.682 138.485 205.361C138.666 205.771 138.9 206.073 139.248 206.07ZM132.057 203.824C132.26 204.148 132.648 204.645 133.001 204.956C134.637 206.398 135.311 206.444 135.966 206.637C136.57 206.815 137.361 206.836 137.518 206.708C137.782 206.495 137.743 206.124 137.587 205.703C137.33 205.009 137.023 204.272 136.67 203.63C136.537 203.39 136.393 203.211 136.159 203.207C135.692 203.197 135.186 203.097 134.476 202.8C134.189 202.68 133.768 202.363 133.381 202.079C132.994 201.794 132.857 201.571 132.713 201.698C132.422 201.952 132.143 202.393 131.95 202.703C131.749 203.03 131.752 203.333 132.057 203.824ZM127.684 196.788C128.001 197.755 128.236 198.798 129.578 200.912C129.867 201.37 130.275 201.824 130.523 202.039C130.901 202.365 131.076 202.274 131.202 201.854C131.32 201.457 131.487 200.881 131.543 200.345C131.571 200.078 131.4 199.934 131.115 199.416C130.83 198.897 130.516 198.337 130.358 197.924C129.966 196.903 129.749 196.142 129.598 195.411C129.522 195.044 129.374 194.875 129.194 194.743C128.715 194.388 128.195 194.137 127.716 193.952C127.425 193.839 127.2 193.893 127.158 194.374C127.134 194.661 127.394 195.895 127.684 196.788ZM127.707 192.854C128.188 193.061 128.701 193.231 129.152 193.258C129.321 193.268 129.448 193.211 129.461 192.879C129.488 192.221 129.579 191.585 129.81 190.818C129.904 190.51 130.137 190.171 130.348 189.856C130.557 189.54 130.714 189.53 130.634 189.22C130.475 188.597 130.188 187.833 129.987 187.307C129.775 186.749 129.569 186.503 129.223 186.533C128.995 186.553 128.641 186.697 128.414 186.943C127.365 188.082 127.305 189.004 127.146 189.776C126.997 190.488 126.949 191.596 127.029 191.926C127.163 192.478 127.415 192.729 127.707 192.854Z" fill="white"/>
<path d="M133.87 192.249C135.739 193.326 137.256 196.215 137.256 198.702C137.256 201.19 135.74 202.332 133.87 201.255C131.999 200.179 130.483 197.288 130.483 194.802C130.483 192.315 132 191.171 133.87 192.249Z" fill="#DBD6D1"/>
<path d="M140.514 198.005C140.144 197.808 139.612 197.517 139.188 197.178C138.976 197.008 138.994 196.788 138.823 196.225C138.651 195.66 138.469 195.046 138.284 194.644C137.826 193.65 137.431 192.962 137.013 192.34C136.802 192.027 136.785 191.806 136.816 191.586C136.901 191.002 137.087 190.461 137.291 189.996C137.415 189.713 137.613 189.595 137.988 189.905C138.212 190.092 138.917 191.143 139.353 191.976C139.825 192.879 140.408 193.78 140.983 196.209C141.107 196.734 141.147 197.338 141.125 197.664C141.092 198.156 140.904 198.213 140.514 198.005Z" fill="#4F443D"/>
<path d="M135.621 190.299C135.519 190.441 135.397 190.507 135.144 190.306C134.644 189.907 134.119 189.571 133.409 189.267C133.123 189.143 132.726 189.114 132.358 189.08C131.992 189.048 131.885 189.167 131.708 188.904C131.353 188.376 130.978 187.658 130.72 187.159C130.448 186.63 130.398 186.308 130.642 186.049C130.803 185.879 131.134 185.687 131.46 185.663C132.969 185.55 133.683 186.092 134.352 186.459C134.969 186.798 135.813 187.469 136.004 187.743C136.324 188.204 136.345 188.568 136.249 188.883C136.093 189.399 135.89 189.92 135.621 190.299Z" fill="#4F443D"/>
<path d="M127.146 189.776C127.305 189.004 127.365 188.082 128.415 186.943C128.641 186.697 128.995 186.553 129.223 186.533C129.57 186.503 129.775 186.749 129.987 187.307C130.188 187.834 130.475 188.597 130.635 189.22C130.715 189.531 130.558 189.541 130.348 189.855C130.139 190.171 129.905 190.51 129.811 190.818C129.578 191.584 129.488 192.221 129.461 192.879C129.448 193.211 129.322 193.266 129.152 193.258C128.701 193.231 128.189 193.061 127.708 192.854C127.415 192.729 127.163 192.478 127.029 191.926C126.949 191.596 126.998 190.488 127.146 189.776Z" fill="#4F443D"/>
<path d="M127.717 193.952C128.196 194.137 128.717 194.388 129.196 194.742C129.375 194.875 129.524 195.044 129.599 195.411C129.75 196.142 129.967 196.903 130.359 197.924C130.518 198.337 130.831 198.897 131.116 199.416C131.402 199.934 131.571 200.078 131.544 200.345C131.489 200.881 131.322 201.459 131.203 201.854C131.078 202.274 130.903 202.365 130.525 202.039C130.275 201.824 129.869 201.37 129.579 200.912C128.238 198.797 128.002 197.755 127.686 196.788C127.394 195.896 127.136 194.661 127.16 194.374C127.2 193.893 127.426 193.839 127.717 193.952Z" fill="#4F443D"/>
<path d="M132.713 201.698C132.859 201.571 132.994 201.793 133.38 202.079C133.768 202.365 134.187 202.68 134.475 202.8C135.185 203.096 135.692 203.197 136.159 203.207C136.395 203.211 136.539 203.39 136.67 203.63C137.023 204.272 137.33 205.009 137.587 205.703C137.742 206.124 137.782 206.495 137.518 206.708C137.361 206.836 136.57 206.816 135.965 206.637C135.31 206.444 134.637 206.4 133.001 204.956C132.648 204.645 132.26 204.147 132.057 203.824C131.752 203.333 131.749 203.03 131.952 202.702C132.143 202.393 132.422 201.952 132.713 201.698Z" fill="#4F443D"/>
<path d="M137.788 202.602C138.131 202.303 138.438 201.912 138.759 201.248C138.888 200.979 138.98 200.482 139.067 200.026C139.155 199.571 139.098 199.321 139.298 199.325C139.695 199.334 140.216 199.489 140.578 199.601C140.961 199.719 141.172 199.947 141.291 200.506C141.369 200.874 141.431 201.487 141.386 201.941C141.182 204.04 140.711 204.492 140.358 205.047C140.033 205.558 139.456 206.065 139.248 206.068C138.9 206.073 138.666 205.771 138.485 205.359C138.187 204.68 137.896 203.938 137.705 203.237C137.635 202.976 137.615 202.753 137.788 202.602Z" fill="#4F443D"/>
<path d="M19.8757 113.546L22.2397 131.752L41.776 120.46L19.8757 113.546Z" fill="#CEC6BE"/>
<path d="M50.8898 142.011C50.8898 133.936 45.9679 124.558 39.8983 121.062C38.3641 120.177 36.5419 119.725 35.0962 119.728C33.9612 119.73 31.0612 119.84 28.0527 121.695C24.5937 123.827 24.1289 128.671 24.1289 128.671L36.4763 153.974C36.4763 153.974 40.4529 155.919 44.5392 153.689C47.0814 152.3 48.6156 150.006 49.3142 148.735C49.6208 148.178 50.0856 147.054 50.2239 146.632C50.6531 145.318 50.8898 143.77 50.8898 142.011Z" fill="#3F352F"/>
<path d="M23.761 132.213C23.761 140.287 28.6814 149.666 34.7525 153.162C40.8235 156.658 45.744 152.947 45.744 144.872C45.744 136.798 40.8235 127.419 34.7525 123.923C28.6814 120.429 23.761 124.14 23.761 132.213Z" fill="#4F443D"/>
<path d="M25.8867 133.537C25.8867 139.921 29.7777 147.339 34.5798 150.104C39.3805 152.869 43.2715 149.934 43.2715 143.548C43.2715 137.164 39.3805 129.745 34.5798 126.98C29.7777 124.218 25.8867 127.152 25.8867 133.537Z" fill="#F7F2EC"/>
<path d="M34.2762 128.308C38.5878 130.792 42.0839 137.454 42.0839 143.188C42.0839 148.923 38.5878 151.56 34.2762 149.077C29.9646 146.593 26.4685 139.931 26.4685 134.197C26.4685 128.461 29.9646 125.825 34.2762 128.308ZM35.9686 130.231C35.7776 129.955 34.9335 129.284 34.3161 128.946C33.646 128.579 32.9317 128.037 31.4246 128.149C31.0981 128.173 30.7673 128.365 30.6062 128.536C30.3624 128.795 30.4108 129.118 30.6846 129.645C30.9427 130.145 31.3177 130.863 31.6741 131.391C31.8509 131.654 31.9593 131.534 32.3257 131.568C32.6921 131.602 33.0885 131.631 33.3765 131.755C34.088 132.059 34.6127 132.395 35.1117 132.794C35.3626 132.996 35.4867 132.929 35.5879 132.787C35.8574 132.409 36.0599 131.887 36.2167 131.369C36.3094 131.056 36.288 130.694 35.9686 130.231ZM30.1186 136.297C30.1186 139.353 31.9806 142.901 34.2762 144.222C36.5731 145.545 38.4338 144.141 38.4338 141.088C38.4338 138.033 36.5717 134.484 34.2762 133.161C31.9792 131.839 30.1186 133.242 30.1186 136.297ZM40.9489 138.697C40.3743 136.268 39.7912 135.367 39.3192 134.464C38.8829 133.631 38.1786 132.58 37.9548 132.393C37.5798 132.083 37.3816 132.201 37.2575 132.484C37.0522 132.949 36.8669 133.49 36.7827 134.074C36.7514 134.293 36.7685 134.515 36.9795 134.828C37.3973 135.45 37.7936 136.138 38.2499 137.132C38.4338 137.533 38.6163 138.148 38.7874 138.712C38.9585 139.276 38.9414 139.496 39.1524 139.665C39.5773 140.005 40.1091 140.296 40.4784 140.493C40.8691 140.702 41.0573 140.644 41.0901 140.15C41.1115 139.828 41.073 139.223 40.9489 138.697ZM39.2123 148.559C39.4205 148.556 39.9979 148.048 40.323 147.538C40.6766 146.985 41.1485 146.531 41.3524 144.432C41.3966 143.978 41.3353 143.363 41.2569 142.996C41.1386 142.439 40.9261 142.21 40.544 142.092C40.1819 141.98 39.66 141.825 39.2636 141.816C39.0655 141.812 39.1211 142.062 39.0327 142.517C38.9443 142.972 38.8544 143.47 38.7247 143.739C38.4039 144.403 38.0973 144.794 37.7537 145.093C37.5812 145.244 37.5997 145.466 37.671 145.729C37.8606 146.428 38.1515 147.171 38.4509 147.849C38.632 148.262 38.8644 148.563 39.2123 148.559ZM32.022 146.315C32.2245 146.639 32.6123 147.135 32.9659 147.447C34.6013 148.889 35.2757 148.935 35.9301 149.128C36.5347 149.307 37.326 149.327 37.4828 149.199C37.7466 148.984 37.7067 148.615 37.5513 148.194C37.2946 147.499 36.9881 146.763 36.6345 146.121C36.5019 145.881 36.3579 145.702 36.1226 145.697C35.6549 145.687 35.1488 145.588 34.4387 145.291C34.1521 145.171 33.7315 144.854 33.3437 144.57C32.9573 144.285 32.8204 144.062 32.6764 144.188C32.3856 144.443 32.1047 144.884 31.9136 145.194C31.714 145.521 31.7169 145.824 32.022 146.315ZM27.6505 139.279C27.967 140.246 28.2023 141.288 29.544 143.403C29.8334 143.861 30.2412 144.315 30.4907 144.53C30.8685 144.855 31.0439 144.764 31.1694 144.345C31.2877 143.948 31.4545 143.372 31.5101 142.836C31.5372 142.568 31.3676 142.425 31.0824 141.907C30.7972 141.389 30.4836 140.827 30.3253 140.415C29.9332 139.394 29.7165 138.633 29.5653 137.902C29.4898 137.535 29.3415 137.366 29.1618 137.233C28.6813 136.879 28.1624 136.627 27.6833 136.443C27.3924 136.33 27.1671 136.384 27.1258 136.865C27.1001 137.152 27.3582 138.385 27.6505 139.279ZM27.6719 135.344C28.1524 135.552 28.6657 135.721 29.1162 135.748C29.2859 135.758 29.4128 135.701 29.4256 135.37C29.4527 134.712 29.544 134.076 29.7749 133.309C29.869 133.001 30.1014 132.662 30.3125 132.346C30.5221 132.031 30.6789 132.021 30.599 131.711C30.4394 131.088 30.1528 130.325 29.9517 129.798C29.7393 129.24 29.534 128.994 29.1875 129.024C28.9594 129.044 28.6058 129.187 28.3791 129.432C27.3297 130.571 27.2698 131.493 27.1101 132.265C26.9618 132.978 26.9134 134.086 26.9932 134.416C27.1272 134.969 27.381 135.219 27.6719 135.344Z" fill="white"/>
<path d="M33.8343 134.74C35.7049 135.817 37.2206 138.705 37.2206 141.193C37.2206 143.681 35.7049 144.823 33.8343 143.746C31.965 142.669 30.448 139.779 30.448 137.293C30.4494 134.805 31.965 133.662 33.8343 134.74Z" fill="#DBD6D1"/>
<path d="M40.4801 140.495C40.1108 140.297 39.579 140.007 39.1541 139.667C38.9431 139.498 38.9602 139.277 38.7891 138.714C38.618 138.149 38.4355 137.535 38.2516 137.134C37.7939 136.14 37.3989 135.451 36.9812 134.83C36.7702 134.517 36.753 134.295 36.7844 134.076C36.8685 133.491 37.0553 132.951 37.2592 132.486C37.3833 132.203 37.5814 132.085 37.9564 132.395C38.1803 132.581 38.8846 133.632 39.3209 134.465C39.7929 135.369 40.376 136.269 40.9506 138.698C41.0746 139.223 41.1146 139.828 41.0932 140.153C41.0575 140.647 40.8693 140.704 40.4801 140.495Z" fill="#4F443D"/>
<path d="M35.5849 132.79C35.4836 132.932 35.361 132.998 35.1086 132.797C34.6082 132.397 34.0835 132.062 33.3734 131.757C33.0869 131.635 32.6905 131.605 32.3226 131.571C31.9562 131.538 31.8493 131.656 31.671 131.393C31.316 130.866 30.9396 130.147 30.6815 129.648C30.4092 129.12 30.3593 128.798 30.6031 128.539C30.7642 128.368 31.095 128.176 31.4215 128.152C32.93 128.04 33.6444 128.581 34.3131 128.948C34.9304 129.287 35.7745 129.958 35.9656 130.234C36.2849 130.695 36.3063 131.058 36.2108 131.373C36.0582 131.89 35.8543 132.41 35.5849 132.79Z" fill="#4F443D"/>
<path d="M27.1102 132.267C27.2699 131.494 27.3297 130.573 28.3791 129.433C28.6058 129.187 28.9594 129.045 29.1875 129.025C29.534 128.995 29.7393 129.241 29.9518 129.799C30.1528 130.327 30.4394 131.089 30.5991 131.712C30.6789 132.023 30.5221 132.033 30.3125 132.348C30.1015 132.663 29.8691 133.002 29.775 133.311C29.5426 134.076 29.4527 134.713 29.4257 135.371C29.4114 135.701 29.2845 135.758 29.1163 135.75C28.6657 135.723 28.1538 135.554 27.6719 135.346C27.3796 135.221 27.1273 134.97 26.9932 134.419C26.9134 134.087 26.9619 132.979 27.1102 132.267Z" fill="#4F443D"/>
<path d="M27.6821 136.443C28.1611 136.627 28.6816 136.879 29.1606 137.233C29.3403 137.366 29.4886 137.535 29.5641 137.902C29.7153 138.633 29.932 139.394 30.3241 140.415C30.4823 140.827 30.796 141.388 31.0812 141.907C31.3663 142.425 31.536 142.568 31.5089 142.836C31.4533 143.372 31.2865 143.949 31.1681 144.345C31.0427 144.764 30.8673 144.855 30.4895 144.53C30.24 144.315 29.8336 143.861 29.5427 143.403C28.2011 141.288 27.9658 140.246 27.6493 139.279C27.3584 138.387 27.0989 137.152 27.1232 136.865C27.1659 136.384 27.3912 136.33 27.6821 136.443Z" fill="#4F443D"/>
<path d="M32.679 144.188C32.8245 144.062 32.9599 144.284 33.3463 144.57C33.7341 144.855 34.1547 145.171 34.4413 145.291C35.1514 145.588 35.6575 145.689 36.1252 145.697C36.3604 145.702 36.5044 145.881 36.637 146.121C36.9906 146.763 37.2972 147.499 37.5538 148.194C37.7092 148.615 37.7492 148.986 37.4854 149.199C37.3271 149.327 36.5372 149.307 35.9327 149.128C35.2768 148.935 34.6039 148.889 32.9685 147.447C32.6149 147.135 32.227 146.638 32.0246 146.315C31.7195 145.824 31.7166 145.521 31.9191 145.194C32.1073 144.884 32.3882 144.443 32.679 144.188Z" fill="#4F443D"/>
<path d="M37.7538 145.093C38.0974 144.794 38.404 144.403 38.7248 143.739C38.8545 143.47 38.9458 142.972 39.0328 142.517C39.1211 142.063 39.0641 141.812 39.2637 141.816C39.6601 141.825 40.1819 141.98 40.5441 142.092C40.9262 142.21 41.1387 142.438 41.257 142.996C41.3354 143.363 41.3967 143.978 41.3525 144.432C41.1486 146.531 40.6767 146.983 40.3231 147.538C39.998 148.048 39.4206 148.556 39.2124 148.559C38.8645 148.563 38.6307 148.262 38.4496 147.849C38.1502 147.171 37.8593 146.428 37.6697 145.729C37.5998 145.467 37.5813 145.244 37.7538 145.093Z" fill="#4F443D"/>
<path d="M213.11 101.447C213.11 101.447 210.979 100.059 210.876 100.012L210.873 100.01C210.467 99.8196 209.96 99.8452 209.406 100.165L206.932 101.59C205.617 102.347 204.541 104.398 204.541 106.147V115.913C204.541 116.919 204.903 117.6 205.456 117.866L205.455 117.869L207.336 119.12L207.994 117.105L209.406 116.293C210.72 115.535 211.797 113.485 211.797 111.736V105.468L213.11 101.447Z" fill="#DBD6D1"/>
<path d="M211.486 117.645L209.012 119.07C207.698 119.827 206.621 119.016 206.621 117.267V107.501C206.621 105.752 207.698 103.703 209.012 102.944L211.486 101.519C212.801 100.763 213.877 101.573 213.877 103.323V113.088C213.877 114.838 212.801 116.889 211.486 117.645Z" fill="#CEC6BE"/>
<path d="M228.824 144.881C224.36 138.923 209.469 122.241 209.469 122.241L197.175 83.8202C195.631 78.845 192.255 74.6378 187.728 72.0464L76.2561 8.24341C75.6031 7.86934 74.8645 7.95041 74.3198 8.32306L74.3213 8.3259L11.6345 44.5434L144.687 179.453L170.466 217.083L232.999 180.979V155.117C233 151.944 230.73 147.424 228.824 144.881Z" fill="#F2EDE9"/>
<path d="M136.465 115.926L149.683 156.582L206.835 123.828L193.617 83.1716L136.465 115.926Z" fill="#45A0D8"/>
<path d="M201.94 121.68C177.534 126.424 147.804 150.799 147.804 150.799L149.685 156.582L206.837 123.828L193.618 83.1716L188.241 86.2523C188.241 86.2523 192.965 110.429 201.94 121.68Z" fill="#3C89CE"/>
<path d="M181.131 139.658L167.341 97.2438L164.853 98.659L178.606 140.96L181.131 139.658Z" fill="#F2EDE9"/>
<path d="M170.467 210.435L232.949 174.361L233 180.98L170.467 217.084V210.435Z" fill="#CEC6BE"/>
<path d="M180.331 187.832V204.655L223.549 179.764V162.941L180.331 187.832Z" fill="#6B5F56"/>
<path d="M225.434 171.088L231.272 167.725V159.959L225.434 163.322V171.088Z" fill="#EC4F46"/>
<path d="M225.434 176.374L231.272 173.011V169.861L225.434 173.223V176.374Z" fill="#EC4F46"/>
<path d="M172.608 201.954L178.447 198.59V190.824L172.608 194.188V201.954Z" fill="#EC4F46"/>
<path d="M172.608 207.239L178.447 203.877V200.726L172.608 204.088V207.239Z" fill="#EC4F46"/>
<path d="M223.549 171.353L180.331 196.243V192.303L223.549 167.412V171.353Z" fill="#4F443D"/>
<path d="M223.549 179.764L180.331 204.655V200.715L223.549 175.825V179.764Z" fill="#4F443D"/>
<path d="M186.1 139.893L205.619 128.709L210.123 133.687L190.579 144.999L186.1 139.893Z" fill="#CEC6BE"/>
<path d="M156.321 157.009L175.84 145.827L180.346 150.803L160.799 162.116L156.321 157.009Z" fill="#CEC6BE"/>
<path d="M170.467 217.084V191.224C170.467 188.049 168.197 183.529 166.291 180.985C161.827 175.027 146.936 158.344 146.936 158.344L134.643 119.922C133.098 114.947 129.722 110.74 125.194 108.149L13.7233 44.3471C12.5113 43.6544 11 44.5263 11 45.9202V125.226L22.2382 131.752C22.231 131.514 22.2282 131.278 22.2282 131.042C22.2282 120.625 28.5773 115.838 36.4078 120.349C44.2397 124.859 50.5874 136.96 50.5874 147.376C50.5874 147.612 50.5845 147.845 50.5774 148.075L52.6619 149.226L122.237 189.304C122.237 189.304 122.225 188.83 122.225 188.594C122.225 178.177 128.574 173.39 136.405 177.901C144.237 182.411 150.584 194.512 150.584 204.928C150.584 205.164 150.582 205.397 150.574 205.627L170.467 217.084Z" fill="#DBD6D1"/>
<path d="M166.857 208.274C165.454 207.434 163.667 208.442 163.667 210.076V213.168L170.466 217.085V210.436L166.857 208.274Z" fill="#B2A89E"/>
<path d="M86.3306 92.9869V168.619L116.359 185.916V110.281L86.3306 92.9869Z" fill="#CEC6BE"/>
<path d="M74.3684 21.7624C75.9952 20.8251 78.4804 20.7227 79.8891 21.5334L166.006 71.1603C166.277 71.3168 166.471 71.5002 166.625 71.6937C167.198 70.8844 167.017 69.9841 166.006 69.4023L79.8891 19.7754C78.4804 18.9633 75.9952 19.0671 74.3684 20.0044C73.0538 20.7611 72.703 21.8363 73.3532 22.6513C73.5785 22.3327 73.9093 22.0269 74.3684 21.7624Z" fill="#CEC6BE"/>
<path d="M73.9723 23.1832L160.089 72.8101C161.498 73.6223 163.983 73.5184 165.61 72.5826C166.069 72.318 166.4 72.0122 166.625 71.695C166.471 71.5016 166.277 71.3181 166.006 71.1617L79.8894 21.5348C78.4807 20.7226 75.9955 20.8265 74.3687 21.7638C73.9096 22.0283 73.5788 22.3341 73.3535 22.6513C73.5075 22.8447 73.7014 23.0268 73.9723 23.1832Z" fill="#DBD6D1"/>
<path d="M61.9011 29.0374C63.5279 28.1001 66.0131 27.9977 67.4218 28.8084L153.539 78.4354C153.81 78.5904 154.004 78.7753 154.158 78.9687C154.731 78.1594 154.55 77.2591 153.539 76.6774L67.4218 27.0491C66.0131 26.2369 63.5279 26.3407 61.9011 27.278C60.5865 28.0347 60.2357 29.11 60.8859 29.9249C61.1112 29.6064 61.442 29.302 61.9011 29.0374Z" fill="#CEC6BE"/>
<path d="M61.5048 30.4569L147.622 80.0838C149.03 80.8959 151.516 80.7921 153.142 79.8548C153.602 79.5903 153.932 79.2845 154.158 78.9673C154.004 78.7739 153.81 78.5904 153.539 78.4339L67.4219 28.8085C66.0132 27.9963 63.528 28.1001 61.9012 29.0374C61.442 29.302 61.1113 29.6078 60.886 29.925C61.0414 30.1184 61.2353 30.3019 61.5048 30.4569Z" fill="#DBD6D1"/>
<path d="M49.4382 36.3111C51.065 35.3738 53.5502 35.2714 54.9589 36.0835L141.076 85.7104C141.347 85.8655 141.541 86.0504 141.695 86.2424C142.268 85.4331 142.087 84.5328 141.076 83.951L54.9589 34.3241C53.5502 33.512 51.065 33.6158 49.4382 34.5531C48.1236 35.3098 47.7728 36.3851 48.423 37.2C48.6483 36.8814 48.9776 36.5756 49.4382 36.3111Z" fill="#CEC6BE"/>
<path d="M49.0419 37.7319L135.159 87.3589C136.568 88.171 139.053 88.0672 140.68 87.1313C141.139 86.8667 141.469 86.5609 141.695 86.2438C141.541 86.0503 141.347 85.8669 141.076 85.7118L54.959 36.0821C53.5503 35.2699 51.0651 35.3723 49.4383 36.3096C48.9792 36.5742 48.6484 36.88 48.4231 37.1972C48.5771 37.392 48.771 37.5755 49.0419 37.7319Z" fill="#DBD6D1"/>
<path d="M36.9738 43.5861C38.6007 42.6488 41.0858 42.5464 42.4945 43.3572L128.611 92.9841C128.882 93.1405 129.076 93.324 129.23 93.5174C129.803 92.7081 129.622 91.8078 128.611 91.2261L42.4945 41.5978C41.0858 40.7856 38.6007 40.8895 36.9738 41.8253C35.6592 42.582 35.3085 43.6573 35.9587 44.4722C36.1839 44.1551 36.5147 43.8507 36.9738 43.5861Z" fill="#CEC6BE"/>
<path d="M36.5775 45.0056L122.694 94.6325C124.103 95.4446 126.588 95.3408 128.215 94.4035C128.674 94.139 129.005 93.8332 129.23 93.516C129.076 93.3226 128.882 93.1391 128.612 92.9827L42.4946 43.3572C41.0859 42.545 38.6008 42.6489 36.9739 43.5862C36.5148 43.8507 36.184 44.1565 35.9587 44.4737C36.1127 44.6671 36.3066 44.8506 36.5775 45.0056Z" fill="#DBD6D1"/>
<path d="M89.2354 127.988L113.35 141.877V111.766L89.2354 97.8768V127.988Z" fill="#45A0D8"/>
<path d="M128.138 150.323L119.854 145.537V111.867L122.014 113.105C125.914 115.343 128.825 118.962 130.17 123.245L141.011 157.76L136.912 155.392L128.138 150.323Z" fill="#45A0D8"/>
<path d="M95.8051 138.801L90.0834 135.505C89.2864 135.046 88.6348 133.803 88.6348 132.743C88.6348 131.684 89.2864 131.191 90.0834 131.649L95.8051 134.945C96.6021 135.404 97.2537 136.647 97.2537 137.707C97.2552 138.768 96.6021 139.26 95.8051 138.801Z" fill="#3F352F"/>
<path d="M135.805 156.827C135.805 156.827 141.966 158.06 143.267 157.279C144.571 156.5 144.479 154.024 142.794 153.546C141.107 153.068 137.463 153.546 137.463 153.546L135.805 156.827Z" fill="#3F352F"/>
<path d="M137.991 145.158C137.991 145.158 135.86 143.772 135.757 143.723L135.754 143.722C135.348 143.531 134.842 143.557 134.289 143.875L131.813 145.301C130.499 146.057 129.422 148.108 129.422 149.858V159.623C129.422 160.629 129.785 161.31 130.338 161.576L130.336 161.579L132.217 162.83L132.876 160.815L134.287 160.003C135.602 159.246 136.678 157.195 136.678 155.446V149.178L137.991 145.158Z" fill="white"/>
<path d="M136.367 161.357L133.894 162.782C132.579 163.54 131.502 162.728 131.502 160.979V151.213C131.502 149.464 132.579 147.414 133.894 146.656L136.367 145.231C137.682 144.474 138.758 145.285 138.758 147.034V156.8C138.758 158.549 137.682 160.599 136.367 161.357Z" fill="#CEC6BE"/>
<path d="M139.984 102.74L183.478 77.6859C183.478 77.6859 181.135 82.7108 168.269 90.5961C152.723 100.125 139.984 102.74 139.984 102.74Z" fill="white"/>
<path d="M70.9752 235.635L58.8916 235.654C58.9684 237.437 59.0605 238.929 59.1768 239.677C59.6165 242.529 58.317 243.738 56.6374 244.895C54.9593 246.052 50.5323 248.422 50.2376 251.738C49.9429 255.055 51.4845 256.491 55.9184 257.647C58.3358 258.278 61.0717 256.732 63.2093 254.928C65.5234 252.975 68.0169 249.684 68.0214 248.479C71.4927 247.212 71.5449 245.231 70.1472 239.919C70.53 238.545 70.7929 237.093 70.9752 235.635Z" fill="#3D322C"/>
<path d="M74.3337 204.397L69.0149 210.566C69.9951 212.058 70.8408 213.29 71.3228 213.873C73.1637 216.096 72.6678 217.8 71.8204 219.654C70.9731 221.509 68.3881 225.814 69.8374 228.81C71.2868 231.808 73.3458 232.252 77.7461 230.969C80.1441 230.27 81.6999 227.539 82.6092 224.894C83.5938 222.029 84.0466 217.925 83.4314 216.889C85.7615 214.021 84.7889 212.294 80.8651 208.45C80.4876 207.077 74.9241 205.743 74.3337 204.397Z" fill="#3D322C"/>
<path d="M43.4047 117.006C43.4047 117.006 44.7293 124.046 45.2382 128.907C45.6664 128.387 50.6038 120.356 50.6038 120.356L57.5384 126.118C57.5384 126.118 56.4287 128.672 53.471 132.674C51.9725 134.701 49.2402 137.543 45.1984 140.208C44.2357 140.844 41.7077 140.084 41.006 139.17C39.7575 137.543 37.1122 136.427 36.7914 129.749C36.4299 122.245 37.9725 117.014 37.9725 117.014L43.4047 117.006Z" fill="#FFC9B6"/>
<path d="M60.018 131.339C54.401 130.147 50.0512 126.188 46.7478 121.622C47.664 120.471 49.7126 118.187 50.5965 117.56C53.0243 108.367 58.7073 107.331 61.5343 108.712C66.7827 111.275 67.7489 117.097 65.4992 121.982C64.3295 124.529 61.6219 129.086 60.018 131.339Z" fill="#E0D1D1"/>
<path d="M54.5046 178.869C50.3074 178.876 46.6741 176.296 44.2174 171.538C43.6226 170.386 43.1834 168.828 42.8824 166.956C42.0434 165.956 41.3666 164.831 40.8931 163.611C37.0595 153.709 40.6457 131.398 44.7995 120.387C47.6178 112.909 51.555 109.918 54.8356 108.81C58.542 105.5 61.4837 105.507 63.3032 106.094C65.7097 106.874 67.6708 109.224 68.295 112.085C68.6174 113.557 68.9816 116.615 69.2762 120.577C72.046 135.262 71.8857 157.554 68.834 166.15C66.2315 173.478 60.8763 178.461 55.1923 178.846C54.962 178.861 54.7317 178.869 54.5046 178.869ZM43.8524 167.989C44.1272 169.251 44.479 170.326 44.9204 171.177C47.355 175.897 50.9927 178.349 55.1406 178.059C60.5123 177.695 65.5966 172.917 68.0939 165.887C70.676 158.618 71.0908 142.961 69.7458 129.699C70.1094 141.729 69.5764 156.432 66.4499 163.545C64.0968 168.899 59.2356 172.003 53.5019 171.89C49.7794 171.805 46.3197 170.345 43.8524 167.989ZM43.5885 166.57C45.9301 169.288 49.5668 171.012 53.5181 171.101C58.9868 171.249 63.5076 168.278 65.7271 163.228C69.6395 154.324 69.428 133.329 68.5212 120.933C67.214 113.888 65.2882 108.67 62.8357 107.722C61.5747 107.234 60.3619 107.384 59.1297 108.174C59.095 108.196 59.0619 108.219 59.0273 108.241C60.193 108.307 60.9236 108.541 60.952 108.55L60.6992 109.298C60.5761 109.257 59.6198 108.942 58.1214 108.968C52.9756 113.785 49.4038 128.902 48.8455 138.291L48.7901 139.217C48.0931 150.865 47.3024 164.066 53.0754 167.323L52.6885 168.011C46.4844 164.511 47.2552 151.629 48.0029 139.171L48.0567 138.245C48.6136 128.891 51.9328 114.647 56.937 109.059C56.4386 109.126 55.9104 109.238 55.3555 109.407C47.9002 116.084 41.214 151.487 43.5885 166.57ZM53.6736 110.083C50.9217 111.474 47.8726 114.47 45.5365 120.665C41.4283 131.561 37.8622 153.596 41.6293 163.327C41.9032 164.037 42.2528 164.71 42.6655 165.345C40.9864 150.148 46.8209 118.926 53.6736 110.083ZM61.4002 106.652C61.9696 106.651 62.5456 106.762 63.12 106.984C65.0896 107.746 66.6998 110.702 67.9523 114.95C67.807 113.797 67.6621 112.879 67.5255 112.253C66.96 109.661 65.206 107.537 63.0598 106.843C61.0983 106.206 58.9067 106.736 56.6473 108.361C57.0321 108.299 57.4011 108.26 57.7481 108.239C58.0599 107.96 58.3782 107.715 58.7044 107.508C59.5868 106.94 60.4901 106.653 61.4002 106.652Z" fill="#B2A89E"/>
<path d="M46.4871 190.325C46.4236 192.104 45.1898 198.168 48.1962 200.337C53.4198 203.19 58.2715 200.006 64.0342 198.472C65.3635 197.186 66.4435 195.826 67.4771 194.072C73.7875 183.372 73.9189 170.13 71.8536 158.228C71.7676 157.735 71.3584 157.284 70.8394 157.239C67.2475 156.937 55.5556 150.035 55.5556 150.035C44.1626 157.172 46.5945 187.295 46.4871 190.325Z" fill="#3C89CE"/>
<path d="M48.196 200.337C48.3951 200.6 48.5927 200.861 48.7839 201.109C50.1873 202.92 57.908 212.216 63.0782 218.385C65.9399 221.801 66.634 223.935 68.3329 224.078C74.1649 224.564 76.8753 218.694 76.8507 215.981C76.8089 211.265 68.3456 198.021 63.513 192.91C59.4431 196.78 53.712 199.398 48.196 200.337Z" fill="#3C89CE"/>
<path d="M62.978 172.724C59.8435 169.292 59.7459 164.231 62.3731 155.481C66.5297 151.585 78.9465 158.056 83.7889 159.207C87.4188 163.709 85.0204 169.402 82.5115 175.015C82.5168 180.569 81.2556 188.283 80.2857 196.764C80.0413 198.891 78.4754 205.349 76.0106 206.769C76.6958 210.317 78.9498 215.598 76.8634 223.155C74.9167 230.205 71.79 238.273 70.783 240.937C67.753 241.99 60.8987 243.442 57.7073 238.925C57.7674 232.764 57.6735 216.546 57.6354 200.71C56.6501 197.887 62.3729 180.4 62.978 172.724Z" fill="#45A0D8"/>
<path d="M84.1934 159.741L84.868 161.527C84.868 161.527 81.9367 165.263 75.2251 166.173C68.5136 167.082 62.3605 165.987 59.5338 164.862C56.7072 163.735 55.5719 160.833 55.5719 160.833C55.5719 160.833 71.1201 163.456 75.2193 162.294C79.3185 161.133 84.1934 159.741 84.1934 159.741Z" fill="#3C89CE"/>
<path d="M84.8589 155.372C84.2991 152.34 80.2183 152.141 80.2183 152.141L78.6306 157.767C78.6306 157.767 85.6683 159.751 84.8589 155.372Z" fill="#3C89CE"/>
<path d="M54.3077 155.18C52.6678 152.407 53.7089 141.997 54.6327 137.472C52.6119 129.981 51.837 124.473 53.3641 118.401C54.3158 114.617 57.7572 110.263 62.4083 110.018C64.6763 109.899 72.3514 113.074 73.799 113.868C79.7558 115.549 83.3059 118.386 87.322 122.797C87.8197 123.344 85.8353 140.939 84.8434 144.235C83.6867 148.081 84.347 153.963 83.4629 157.554C83.9098 161.047 73.1984 163.119 70.0375 163.136C59.1968 163.198 56.5471 160.182 54.3077 155.18Z" fill="#F9EFEF"/>
<path d="M80.2183 152.141C80.2183 152.141 77.7282 153.514 74.3814 152.642C71.0331 151.77 69.1929 149.977 69.1929 149.977C69.1929 149.977 73.4189 151.335 75.3075 151.677C77.1976 152.017 80.2183 152.141 80.2183 152.141Z" fill="#D6C9D4"/>
<path d="M77.6185 115.246C77.6185 115.246 77.1459 118.821 72.9683 120.273C66.6482 122.471 62.1658 119.477 60.9415 116.134C59.7172 112.79 63.5963 110.015 63.5963 110.015C63.5963 110.015 71.5708 110.886 77.6185 115.246Z" fill="white"/>
<path d="M63.5747 108.261C64.911 108.528 67.1609 108.951 68.4917 108.689C70.2578 108.342 72.2517 107.467 73.7088 106.151C73.8377 107.988 74.4347 112.667 75.2766 114.516C76.2372 116.63 71.5875 118.821 67.5994 118.397C64.8103 118.1 62.3445 115.681 62.3524 114.643C63.187 111.637 63.2787 109.665 63.5747 108.261Z" fill="#FFB9A4"/>
<path d="M59.3229 99.1739C59.7165 96.6307 60.6298 93.4811 62.7993 91.8784C64.9436 90.2931 68.2988 90.49 70.8011 90.9483C74.6791 91.6601 76.9464 96.2908 75.6952 101.214C74.5396 105.76 70.657 112.531 65.4005 112.919C62.7241 113.115 60.9117 110.922 59.9944 108.268C58.9061 105.121 58.998 101.272 59.3229 99.1739Z" fill="#FFC9B6"/>
<path d="M59.9389 93.5673C59.8931 93.5674 57.5888 94.6813 55.7227 94.5485C53.2193 94.3693 52.9507 92.0211 52.9507 92.0211C52.9507 92.0211 56.0393 91.1347 57.9009 91.3874C59.7625 91.6417 59.9389 93.5673 59.9389 93.5673Z" fill="#45A0D8"/>
<path d="M76.99 102.254C76.99 102.254 77.2774 102.435 76.4584 104.312C75.6395 106.189 73.9872 108.74 73.9872 108.74C73.9872 108.74 72.8203 107.93 72.9425 105.264C73.0647 102.598 73.9758 101.185 73.9758 101.185C73.9758 101.185 71.2668 101.698 68.3107 99.4585C65.3546 97.2184 64.9672 95.5502 64.9672 95.5502C64.9672 95.5502 62.6851 98.8423 59.5918 98.6798C56.4985 98.5173 53.345 94.0142 56.4444 92.9937C59.5422 91.9717 66.6021 92.9374 66.6021 92.9374C66.6021 92.9374 77.1866 98.7069 76.99 102.254Z" fill="#3D322C"/>
<path d="M77.0398 103.097C74.6753 97.7959 65.9405 91.7365 59.449 92.1375C59.4836 92.0806 59.5072 92.0254 59.5434 91.9686C62.9832 86.5722 66.6501 85.3647 73.9514 88.4831C81.2527 91.6014 79.3554 97.9576 78.9716 98.7231C78.8773 98.9141 78.1008 101.756 77.0398 103.097Z" fill="#45A0D8"/>
<path d="M73.0497 97.9718C73.0497 97.9718 70.9543 94.3299 65.8561 91.9953C59.4447 89.0586 52.9507 92.0211 52.9507 92.0211C52.9507 92.0211 57.6333 92.7822 59.5481 94.8913C61.463 96.9988 62.5744 98.6817 66.3348 98.7407C70.8144 98.8096 73.0497 97.9718 73.0497 97.9718Z" fill="#3C89CE"/>
<path d="M77.3422 199.741C76.8316 200.017 76.2728 201.865 74.4645 203.425C72.6561 204.984 71.294 205.461 71.294 205.461C71.294 205.461 71.7288 202.979 74.2144 201.786C76.6984 200.593 77.3422 199.741 77.3422 199.741Z" fill="#3C89CE"/>
<path d="M70.7312 206.781C70.7312 206.781 73.033 208.179 73.4153 209.579C73.7975 210.979 74.1009 212.383 74.1009 212.383C74.1009 212.383 72.5599 212.393 71.8502 210.381C71.1405 208.37 70.7312 206.781 70.7312 206.781Z" fill="#3C89CE"/>
<path d="M54.0316 193.749L56.1362 208.735C56.1374 209.517 56.629 210.25 57.4862 210.742L74.7884 220.696C75.4767 221.09 76.3399 221.308 77.2216 221.307C77.9818 221.306 78.6693 221.141 79.2067 220.829L106.391 205.08C107.092 204.674 107.495 204.034 107.494 203.324L108.512 186.996L54.0316 193.749Z" fill="#493B36"/>
<path d="M109.905 185.975L108.613 185.977C108.55 185.935 108.499 185.884 108.43 185.846L89.3817 174.888C88.6239 174.452 87.674 174.214 86.704 174.215C85.8664 174.216 85.1096 174.399 84.517 174.742L54.5872 192.082C54.5289 192.117 54.4849 192.161 54.4297 192.199L53.3713 192.201L53.3741 194.016C53.3754 194.879 53.916 195.684 54.8601 196.227L73.9083 207.186C74.6645 207.622 75.6159 207.86 76.586 207.858C77.4235 207.857 78.1787 207.675 78.7729 207.331L108.701 189.991C109.473 189.544 109.915 188.84 109.914 188.059C109.916 187.966 109.905 185.975 109.905 185.975Z" fill="#332723"/>
<path d="M76.585 205.863C75.6149 205.865 74.6635 205.626 73.9073 205.191L54.8591 194.232C53.9166 193.689 53.3744 192.884 53.3731 192.021C53.3719 191.24 53.8141 190.536 54.5863 190.089L84.5161 172.749C85.1086 172.405 85.8654 172.223 86.703 172.222C87.673 172.22 88.6229 172.458 89.3807 172.894L108.429 183.853C109.373 184.396 109.914 185.201 109.915 186.064C109.916 186.844 109.474 187.548 108.702 187.996L78.7735 205.336C78.1793 205.679 77.4225 205.862 76.585 205.863Z" fill="#493B36"/>
<path d="M55.1662 192.014L85.0944 174.673C86.04 174.126 87.7088 174.192 88.8029 174.822L107.851 185.781C108.23 186 108.484 186.258 108.625 186.524C108.944 185.992 108.672 185.329 107.85 184.855L88.8015 173.897C87.7075 173.267 86.0386 173.2 85.093 173.748L55.1648 191.088C54.547 191.447 54.3933 191.982 54.6606 192.485C54.766 192.311 54.933 192.148 55.1662 192.014Z" fill="#332723"/>
<path d="M55.4344 193.228L74.4826 204.187C75.5767 204.816 77.2455 204.883 78.1911 204.334L108.119 186.994C108.353 186.858 108.521 186.696 108.625 186.523C108.483 186.256 108.23 185.997 107.851 185.78L88.8027 174.821C87.7087 174.192 86.0398 174.125 85.0942 174.672L55.166 192.012C54.9328 192.148 54.7643 192.309 54.6604 192.483C54.8028 192.752 55.0556 193.011 55.4344 193.228Z" fill="#544640"/>
<path d="M79.1311 189.895L78.2478 189.897L78.2482 190.11L76.9268 189.348C76.75 189.248 76.4408 189.261 76.2376 189.378L75.8767 189.586L75.8764 189.403L74.9931 189.405L74.9943 190.198L74.9991 190.198C74.9866 190.272 75.0229 190.346 75.1129 190.398L77.1999 191.599C77.3767 191.699 77.6874 191.686 77.8892 191.569L78.9639 190.948C79.0916 190.873 79.1388 190.777 79.1197 190.689L79.1323 190.689L79.1311 189.895Z" fill="#332723"/>
<path d="M77.1989 190.777L75.1119 189.577C74.9351 189.474 74.9585 189.296 75.1603 189.177L76.235 188.554C76.4383 188.437 76.749 188.423 76.9242 188.525L79.0112 189.725C79.188 189.826 79.1647 190.006 78.963 190.124L77.8882 190.746C77.6849 190.864 77.3757 190.878 77.1989 190.777Z" fill="#493B36"/>
<path d="M86.1177 185.867L85.236 185.869L85.2363 186.082L83.915 185.322C83.7382 185.221 83.4275 185.234 83.2258 185.351L82.8649 185.56L82.8646 185.379L81.9829 185.38L81.9841 186.173L81.9888 186.173C81.9763 186.248 82.0127 186.322 82.1027 186.374L84.1897 187.574C84.3665 187.676 84.6756 187.661 84.8789 187.544L85.9537 186.923C86.0813 186.849 86.1285 186.752 86.1095 186.664L86.1221 186.664L86.1209 185.867L86.1177 185.867Z" fill="#332723"/>
<path d="M84.1851 186.749L82.0981 185.549C81.9213 185.448 81.9431 185.268 82.1463 185.149L83.2211 184.528C83.4244 184.411 83.7352 184.396 83.9104 184.499L85.9974 185.699C86.1742 185.8 86.1524 185.979 85.9491 186.098L84.8743 186.72C84.671 186.838 84.3619 186.851 84.1851 186.749Z" fill="#493B36"/>
<path d="M84.7407 180.661L83.3405 179.887L83.3389 179.889C83.1352 179.765 82.8686 179.767 82.5739 179.938L77.0961 183.111C76.4594 183.48 75.9436 184.47 75.9448 185.32L75.9453 185.637L75.9513 189.613L77.3753 190.433L77.3701 187.045C77.3697 186.74 78.0491 185.432 78.5364 184.351L82.9587 181.954C82.9743 182.897 82.9737 185.599 82.9737 185.599L83.738 185.157L85.1619 185.943L85.1561 182.087L84.7407 180.661Z" fill="#F77B28"/>
<path d="M84.3961 186.383L82.9722 185.596L82.9572 181.951L84.3888 181.534L84.7116 183.258L84.3961 186.383Z" fill="#E56813"/>
<path d="M77.3689 186.105L77.3755 190.431L78.1398 189.988C78.1398 189.988 78.129 187.003 78.1452 186.271C78.1569 185.679 78.2622 185.417 78.4952 185.105C78.8903 184.572 79.3431 184.654 80.1581 184.367C80.9133 184.103 80.9857 184.061 81.2631 183.9C81.542 183.739 81.6129 183.696 82.3675 183.088C83.182 182.429 83.6338 181.824 84.0298 181.897C84.2633 181.941 84.3676 182.082 84.3827 182.657C84.3995 183.37 84.3993 186.381 84.3993 186.381L85.1637 185.938L85.1571 181.593C85.1558 180.743 84.6379 180.352 84.0012 180.722L78.5233 183.896C77.8819 184.266 77.3676 185.255 77.3689 186.105Z" fill="#FF8D40"/>
<path d="M81.8783 151.4C81.8783 151.4 78.8722 160.978 78.7525 166.263C78.7141 168.011 78.6755 169.617 78.6413 170.989L85.2265 170.979C87.0228 165.565 89.9694 156.365 90.5034 152.703C91.2824 147.366 87.5197 131.198 87.5197 131.198L77.75 131.213C77.75 131.213 79.0007 143.687 79.6614 146.683C80.3236 149.68 81.8783 151.4 81.8783 151.4Z" fill="#FFC9B6"/>
<path d="M85.7681 169.341C83.306 169.397 80.8196 169.011 78.7081 168.265C78.6088 172.533 78.5283 175.586 78.5283 175.586C78.5283 175.586 75.8992 176.823 74.8585 179.123C73.8178 181.422 76.5278 183.652 76.5278 183.652C76.5278 183.652 78.2421 182.408 79.1256 184.66C79.5215 185.671 80.0526 186.452 81.9848 185.438C83.3418 184.727 84.2177 184.022 85.1564 182.083C86.8593 178.567 83.8258 175.142 83.8258 175.142C83.8258 175.142 84.6722 172.684 85.7681 169.341Z" fill="#FFC9B6"/>
<path d="M80.9169 119.561C86.7967 117.245 89.052 122.303 90.2384 128.725C90.7234 131.346 89.6196 135.707 89.5433 137.425C90.2209 139.058 90.2578 141.542 90.2578 141.542C90.2578 141.542 88.2785 142.739 82.0251 142.11C77.6743 141.672 76.0766 141.77 76.0766 141.77C76.0766 141.77 75.5027 138.781 76.1711 137.488C73.9764 133.876 73.218 122.595 80.9169 119.561Z" fill="#E0D1D1"/>
<path d="M50.0384 108.226C50.0384 108.226 46.4287 107.619 43.0258 109.255C39.6229 110.892 38.8683 112.579 38.1198 116.179C37.3713 119.78 37.1385 121.309 37.1385 121.309C37.1385 121.309 38.0751 122.112 39.9901 122.238C41.9052 122.364 44.2981 121.441 44.1575 121.298C44.0169 121.153 43.4034 117.004 43.4034 117.004C43.4034 117.004 45.2439 116.882 47.1928 115.423C49.1417 113.962 51.0839 114.286 53.6793 113.739C55.6045 113.334 55.1428 112.589 54.379 112.325C53.6152 112.061 49.921 111.936 49.921 111.936C49.921 111.936 53.482 111.576 55.6618 110.547C57.8417 109.519 56.9708 109.375 55.6261 108.841C56.0239 106.972 52.1512 107.686 50.0384 108.226Z" fill="#FFC9B6"/>
</svg>
