<svg width="1134" height="1080" viewBox="0 0 1134 1080" fill="none" xmlns="http://www.w3.org/2000/svg">
<g clip-path="url(#clip0_163_181)">
<path d="M849 750C1125.14 750 1349 526.142 1349 250C1349 -26.1424 1125.14 -250 849 -250C572.858 -250 349 -26.1424 349 250C349 526.142 572.858 750 849 750Z" fill="#1869FF"/>
<path d="M453.002 645.854L461.791 715.829L536.855 672.385L453.002 645.854Z" fill="#CEC6BE"/>
<path d="M571.75 755.102C571.75 724.11 552.905 688.113 529.666 674.694C523.791 671.299 516.815 669.562 511.279 669.573C506.934 669.584 495.83 670.005 484.311 677.123C471.067 685.312 469.287 703.901 469.287 703.901L516.564 801.019C516.564 801.019 531.789 808.487 547.435 799.927C557.169 794.593 563.043 785.788 565.718 780.907C566.891 778.767 568.671 774.455 569.201 772.833C570.844 767.794 571.75 761.855 571.75 755.102Z" fill="#3F352F"/>
<path d="M467.879 717.494C467.879 748.485 486.724 784.483 509.963 797.902C533.208 811.32 552.048 797.077 552.048 766.086C552.048 735.094 533.208 699.097 509.963 685.678C486.718 672.265 467.879 686.508 467.879 717.494Z" fill="#4F443D"/>
<path d="M476.019 722.576C476.019 747.082 490.922 775.552 509.303 786.164C527.684 796.777 542.582 785.515 542.582 761.003C542.582 736.492 527.684 708.022 509.303 697.41C490.917 686.808 476.019 698.07 476.019 722.576Z" fill="#F7F2EC"/>
<path d="M508.14 702.508C524.649 712.04 538.034 737.611 538.034 759.622C538.034 781.633 524.649 791.755 508.14 782.223C491.632 772.691 478.246 747.121 478.246 725.109C478.246 703.093 491.632 692.977 508.14 702.508ZM514.62 709.889C513.889 708.83 510.657 706.253 508.293 704.96C505.727 703.551 502.992 701.471 497.222 701.903C495.977 701.995 494.705 702.732 494.088 703.387C493.155 704.381 493.34 705.62 494.389 707.646C495.377 709.562 496.812 712.319 498.172 714.344C498.849 715.354 499.264 714.895 500.661 715.021C502.064 715.152 503.587 715.261 504.685 715.736C507.409 716.904 509.418 718.187 511.328 719.727C512.289 720.502 512.764 720.245 513.152 719.699C514.183 718.247 514.959 716.244 515.559 714.257C515.925 713.056 515.843 711.663 514.62 709.889ZM492.221 733.173C492.221 744.899 499.351 758.519 508.14 763.591C516.935 768.668 524.064 763.28 524.064 751.553C524.064 739.827 516.935 726.212 508.14 721.135C499.345 716.064 492.221 721.452 492.221 733.173ZM533.684 742.387C531.483 733.063 529.251 729.608 527.444 726.141C525.773 722.942 523.076 718.908 522.219 718.193C520.784 717.003 520.025 717.456 519.55 718.542C518.764 720.327 518.054 722.402 517.732 724.645C517.612 725.486 517.677 726.338 518.485 727.539C520.09 729.924 521.602 732.567 523.349 736.382C524.054 737.922 524.752 740.28 525.413 742.448C526.068 744.615 526.002 745.456 526.81 746.105C528.437 747.41 530.474 748.524 531.887 749.282C533.383 750.085 534.104 749.861 534.229 747.967C534.311 746.722 534.164 744.402 533.684 742.387ZM527.04 780.241C527.837 780.23 530.048 778.281 531.292 776.322C532.646 774.198 534.453 772.457 535.228 764.399C535.398 762.657 535.163 760.299 534.863 758.891C534.41 756.751 533.596 755.872 532.133 755.419C530.746 754.987 528.754 754.392 527.231 754.359C526.472 754.343 526.685 755.304 526.346 757.051C526.008 758.798 525.664 760.708 525.167 761.74C523.939 764.29 522.765 765.791 521.45 766.937C520.789 767.516 520.86 768.368 521.133 769.378C521.859 772.063 522.973 774.913 524.119 777.523C524.812 779.095 525.708 780.252 527.04 780.241ZM499.509 771.621C500.284 772.866 501.769 774.771 503.123 775.967C509.385 781.502 511.967 781.677 514.473 782.419C516.787 783.102 519.817 783.184 520.418 782.692C521.428 781.874 521.28 780.449 520.68 778.833C519.697 776.169 518.523 773.341 517.17 770.879C516.662 769.956 516.111 769.268 515.215 769.252C513.425 769.214 511.487 768.832 508.768 767.691C507.671 767.232 506.06 766.015 504.575 764.923C503.096 763.831 502.572 762.974 502.02 763.46C500.907 764.437 499.837 766.129 499.1 767.319C498.33 768.575 498.341 769.738 499.509 771.621ZM482.766 744.615C483.978 748.327 484.879 752.329 490.016 760.446C491.124 762.204 492.685 763.946 493.635 764.77C495.082 766.02 495.753 765.671 496.234 764.06C496.687 762.537 497.326 760.326 497.538 758.268C497.648 757.242 496.993 756.691 495.901 754.703C494.809 752.711 493.608 750.56 493.002 748.977C491.501 745.057 490.671 742.136 490.092 739.33C489.803 737.922 489.235 737.272 488.547 736.765C486.713 735.405 484.72 734.439 482.886 733.729C481.772 733.298 480.91 733.506 480.752 735.351C480.659 736.453 481.652 741.187 482.766 744.615ZM482.853 729.515C484.693 730.312 486.658 730.962 488.383 731.065C489.033 731.103 489.519 730.885 489.568 729.613C489.672 727.086 490.021 724.645 490.906 721.703C491.266 720.518 492.156 719.219 492.964 718.007C493.766 716.795 494.367 716.757 494.061 715.567C493.45 713.176 492.352 710.244 491.583 708.224C490.769 706.084 489.983 705.14 488.656 705.254C487.783 705.331 486.429 705.882 485.561 706.827C481.543 711.199 481.314 714.737 480.702 717.701C480.135 720.436 479.949 724.689 480.255 725.955C480.768 728.074 481.734 729.034 482.853 729.515Z" fill="white"/>
<path d="M506.447 727.194C513.604 731.327 519.413 742.415 519.413 751.963C519.413 761.511 513.61 765.894 506.447 761.762C499.285 757.629 493.482 746.536 493.482 736.994C493.482 727.446 499.29 723.056 506.447 727.194Z" fill="#DBD6D1"/>
<path d="M531.887 749.288C530.473 748.529 528.436 747.415 526.81 746.111C526.002 745.461 526.067 744.615 525.412 742.453C524.757 740.286 524.058 737.927 523.348 736.388C521.596 732.572 520.084 729.93 518.484 727.544C517.676 726.343 517.611 725.492 517.731 724.651C518.053 722.407 518.768 720.333 519.549 718.548C520.024 717.461 520.783 717.008 522.218 718.198C523.076 718.913 525.772 722.948 527.443 726.147C529.25 729.613 531.483 733.069 533.683 742.393C534.158 744.408 534.31 746.728 534.229 747.978C534.103 749.867 533.382 750.085 531.887 749.288Z" fill="#4F443D"/>
<path d="M513.152 719.71C512.764 720.256 512.295 720.507 511.328 719.738C509.412 718.204 507.403 716.915 504.685 715.747C503.587 715.272 502.07 715.163 500.661 715.032C499.258 714.906 498.849 715.365 498.172 714.355C496.813 712.33 495.377 709.573 494.389 707.657C493.346 705.626 493.155 704.392 494.088 703.398C494.705 702.743 495.972 702.006 497.222 701.914C502.998 701.482 505.733 703.562 508.293 704.971C510.657 706.27 513.889 708.847 514.62 709.9C515.843 711.669 515.925 713.067 515.559 714.273C514.959 716.255 514.184 718.253 513.152 719.71Z" fill="#4F443D"/>
<path d="M480.703 717.701C481.314 714.737 481.543 711.199 485.561 706.826C486.429 705.882 487.783 705.331 488.657 705.254C489.983 705.14 490.769 706.084 491.583 708.224C492.352 710.249 493.45 713.175 494.061 715.567C494.367 716.762 493.766 716.8 492.964 718.007C492.161 719.219 491.266 720.518 490.906 721.703C490.016 724.64 489.672 727.085 489.568 729.613C489.519 730.885 489.033 731.098 488.384 731.065C486.659 730.961 484.699 730.312 482.854 729.515C481.734 729.034 480.768 728.073 480.255 725.955C479.949 724.689 480.135 720.436 480.703 717.701Z" fill="#4F443D"/>
<path d="M482.891 733.729C484.726 734.439 486.718 735.405 488.552 736.764C489.24 737.272 489.808 737.922 490.097 739.33C490.676 742.136 491.506 745.057 493.007 748.977C493.613 750.56 494.814 752.711 495.906 754.703C496.998 756.69 497.647 757.242 497.544 758.268C497.331 760.326 496.692 762.543 496.239 764.06C495.759 765.671 495.087 766.02 493.64 764.77C492.685 763.946 491.129 762.204 490.021 760.446C484.884 752.329 483.983 748.327 482.771 744.615C481.652 741.192 480.664 736.453 480.757 735.351C480.91 733.505 481.778 733.298 482.891 733.729Z" fill="#4F443D"/>
<path d="M502.02 763.46C502.577 762.974 503.095 763.826 504.575 764.923C506.059 766.02 507.664 767.232 508.767 767.691C511.486 768.826 513.424 769.214 515.214 769.252C516.115 769.268 516.667 769.956 517.169 770.879C518.523 773.341 519.696 776.169 520.679 778.833C521.274 780.449 521.427 781.873 520.417 782.692C519.817 783.184 516.787 783.107 514.472 782.419C511.961 781.677 509.384 781.508 503.122 775.967C501.769 774.771 500.284 772.86 499.508 771.621C498.34 769.738 498.329 768.575 499.105 767.314C499.836 766.129 500.906 764.437 502.02 763.46Z" fill="#4F443D"/>
<path d="M521.449 766.932C522.765 765.785 523.938 764.284 525.167 761.735C525.664 760.703 526.013 758.792 526.346 757.045C526.684 755.298 526.466 754.338 527.23 754.354C528.753 754.387 530.746 754.982 532.133 755.413C533.601 755.866 534.409 756.74 534.862 758.885C535.162 760.299 535.397 762.652 535.228 764.393C534.447 772.451 532.64 774.187 531.292 776.316C530.047 778.276 527.836 780.225 527.039 780.236C525.707 780.252 524.812 779.095 524.119 777.512C522.978 774.908 521.864 772.058 521.132 769.367C520.865 768.368 520.789 767.511 521.449 766.932Z" fill="#4F443D"/>
<path d="M69.9839 425.113L79.0352 494.99L153.836 451.65L69.9839 425.113Z" fill="#CEC6BE"/>
<path d="M188.731 534.367C188.731 503.375 169.886 467.378 146.646 453.959C140.772 450.564 133.795 448.828 128.26 448.839C123.914 448.849 112.81 449.27 101.291 456.389C88.0475 464.572 86.2678 483.166 86.2678 483.166L133.544 580.284C133.544 580.284 148.77 587.752 164.416 579.192C174.149 573.858 180.023 565.053 182.698 560.178C183.872 558.038 185.652 553.725 186.181 552.104C187.824 547.06 188.731 541.12 188.731 534.367Z" fill="#3F352F"/>
<path d="M84.8594 496.759C84.8594 527.751 103.699 563.748 126.944 577.167C150.189 590.585 169.028 576.342 169.028 545.351C169.028 514.359 150.189 478.362 126.944 464.943C103.699 451.53 84.8594 465.773 84.8594 496.759Z" fill="#4F443D"/>
<path d="M92.9985 501.841C92.9985 526.347 107.897 554.817 126.283 565.43C144.664 576.042 159.562 564.78 159.562 540.268C159.562 515.762 144.664 487.287 126.283 476.675C107.897 466.073 92.9985 477.335 92.9985 501.841Z" fill="#F7F2EC"/>
<path d="M125.12 481.774C141.628 491.305 155.014 516.876 155.014 538.887C155.014 560.898 141.628 571.02 125.12 561.488C108.611 551.956 95.2256 526.386 95.2256 504.374C95.2256 482.358 108.611 472.242 125.12 481.774ZM131.6 489.154C130.868 488.095 127.637 485.519 125.273 484.219C122.707 482.811 119.972 480.731 114.202 481.162C112.951 481.255 111.685 481.992 111.068 482.647C110.135 483.641 110.32 484.88 111.368 486.905C112.356 488.821 113.792 491.578 115.157 493.604C115.834 494.613 116.249 494.155 117.652 494.286C119.055 494.417 120.572 494.526 121.675 495.001C124.399 496.169 126.408 497.458 128.319 498.992C129.28 499.767 129.755 499.51 130.142 498.964C131.174 497.512 131.949 495.509 132.55 493.522C132.905 492.321 132.823 490.929 131.6 489.154ZM109.201 512.438C109.201 524.164 116.331 537.784 125.12 542.856C133.915 547.933 141.039 542.545 141.039 530.824C141.039 519.098 133.909 505.477 125.12 500.4C116.325 495.323 109.201 500.711 109.201 512.438ZM150.669 521.647C148.469 512.323 146.236 508.867 144.429 505.401C142.758 502.202 140.062 498.167 139.204 497.452C137.769 496.262 137.01 496.715 136.535 497.802C135.749 499.587 135.039 501.661 134.717 503.905C134.597 504.746 134.662 505.597 135.47 506.798C137.07 509.184 138.588 511.826 140.335 515.642C141.039 517.182 141.738 519.54 142.393 521.707C143.048 523.869 142.982 524.715 143.79 525.365C145.417 526.67 147.453 527.783 148.867 528.542C150.363 529.345 151.084 529.121 151.209 527.226C151.291 525.987 151.144 523.667 150.669 521.647ZM144.019 559.501C144.816 559.49 147.027 557.541 148.272 555.581C149.626 553.458 151.433 551.716 152.214 543.658C152.383 541.917 152.148 539.559 151.848 538.15C151.395 536.01 150.581 535.131 149.118 534.678C147.732 534.247 145.734 533.652 144.216 533.619C143.457 533.603 143.67 534.563 143.332 536.31C142.993 538.057 142.649 539.968 142.152 541C140.924 543.549 139.75 545.05 138.435 546.197C137.774 546.776 137.845 547.627 138.118 548.637C138.844 551.323 139.958 554.173 141.104 556.777C141.798 558.36 142.687 559.517 144.019 559.501ZM116.489 550.886C117.264 552.131 118.749 554.036 120.103 555.232C126.365 560.767 128.947 560.942 131.452 561.685C133.767 562.372 136.797 562.449 137.397 561.957C138.407 561.133 138.255 559.714 137.66 558.098C136.677 555.434 135.503 552.606 134.149 550.144C133.642 549.221 133.09 548.533 132.189 548.517C130.399 548.479 128.461 548.097 125.742 546.956C124.645 546.497 123.034 545.28 121.55 544.188C120.07 543.096 119.546 542.239 118.995 542.725C117.881 543.702 116.806 545.394 116.074 546.585C115.31 547.84 115.321 549.003 116.489 550.886ZM99.7512 523.88C100.963 527.592 101.864 531.594 107.001 539.711C108.109 541.469 109.67 543.211 110.626 544.035C112.073 545.285 112.744 544.936 113.224 543.325C113.678 541.802 114.316 539.591 114.529 537.533C114.633 536.507 113.983 535.956 112.891 533.968C111.8 531.981 110.599 529.825 109.993 528.242C108.491 524.322 107.662 521.401 107.083 518.595C106.794 517.187 106.226 516.537 105.538 516.03C103.698 514.67 101.711 513.704 99.8768 512.994C98.7631 512.563 97.9006 512.771 97.7422 514.616C97.644 515.719 98.6321 520.452 99.7512 523.88ZM99.8331 508.78C101.673 509.577 103.638 510.227 105.363 510.33C106.013 510.369 106.499 510.15 106.548 508.878C106.652 506.351 107.001 503.91 107.885 500.968C108.246 499.783 109.135 498.484 109.943 497.272C110.746 496.06 111.346 496.022 111.041 494.832C110.429 492.441 109.332 489.515 108.562 487.489C107.749 485.349 106.963 484.405 105.636 484.519C104.763 484.596 103.409 485.147 102.541 486.086C98.5229 490.459 98.2936 493.997 97.6822 496.961C97.1145 499.696 96.9288 503.949 97.2346 505.215C97.7477 507.339 98.7194 508.3 99.8331 508.78Z" fill="white"/>
<path d="M123.428 506.46C130.59 510.592 136.393 521.68 136.393 531.228C136.393 540.776 130.59 545.16 123.428 541.027C116.271 536.894 110.462 525.802 110.462 516.259C110.468 506.711 116.271 502.322 123.428 506.46Z" fill="#DBD6D1"/>
<path d="M148.873 528.548C147.459 527.789 145.423 526.675 143.796 525.37C142.988 524.721 143.054 523.875 142.399 521.713C141.744 519.545 141.045 517.187 140.341 515.648C138.588 511.832 137.076 509.189 135.477 506.804C134.669 505.603 134.603 504.751 134.723 503.91C135.045 501.667 135.76 499.592 136.541 497.807C137.016 496.721 137.775 496.268 139.211 497.458C140.068 498.173 142.765 502.207 144.435 505.406C146.242 508.873 148.475 512.328 150.675 521.653C151.15 523.667 151.303 525.987 151.221 527.237C151.084 529.132 150.364 529.35 148.873 528.548Z" fill="#4F443D"/>
<path d="M130.13 498.975C129.743 499.521 129.273 499.772 128.307 499.003C126.391 497.469 124.382 496.18 121.663 495.012C120.566 494.542 119.048 494.428 117.64 494.297C116.237 494.171 115.827 494.624 115.145 493.614C113.786 491.589 112.345 488.832 111.356 486.916C110.314 484.891 110.123 483.651 111.056 482.658C111.673 482.003 112.94 481.266 114.19 481.173C119.966 480.742 122.701 482.822 125.261 484.23C127.625 485.529 130.857 488.106 131.588 489.165C132.811 490.934 132.893 492.326 132.527 493.538C131.943 495.52 131.162 497.518 130.13 498.975Z" fill="#4F443D"/>
<path d="M97.6824 496.966C98.2938 494.002 98.5231 490.464 102.541 486.092C103.409 485.147 104.763 484.601 105.636 484.525C106.963 484.41 107.749 485.355 108.562 487.495C109.332 489.52 110.43 492.446 111.041 494.837C111.347 496.033 110.746 496.071 109.944 497.277C109.136 498.489 108.246 499.789 107.886 500.973C106.996 503.91 106.652 506.356 106.548 508.883C106.493 510.15 106.008 510.368 105.363 510.336C103.638 510.232 101.678 509.582 99.8333 508.785C98.7142 508.305 97.7479 507.344 97.2348 505.226C96.929 503.954 97.1147 499.701 97.6824 496.966Z" fill="#4F443D"/>
<path d="M99.8718 512.994C101.706 513.704 103.699 514.67 105.533 516.03C106.221 516.537 106.789 517.187 107.078 518.596C107.657 521.402 108.486 524.322 109.988 528.242C110.594 529.825 111.795 531.976 112.886 533.968C113.978 535.956 114.628 536.507 114.524 537.533C114.311 539.591 113.673 541.808 113.219 543.325C112.739 544.936 112.068 545.285 110.621 544.035C109.666 543.211 108.11 541.469 106.996 539.711C101.859 531.594 100.958 527.592 99.7463 523.88C98.6326 520.457 97.639 515.719 97.7319 514.616C97.8956 512.771 98.7582 512.563 99.8718 512.994Z" fill="#4F443D"/>
<path d="M119.005 542.725C119.562 542.239 120.08 543.091 121.56 544.188C123.045 545.285 124.655 546.497 125.752 546.956C128.471 548.097 130.409 548.484 132.2 548.517C133.1 548.533 133.652 549.221 134.16 550.144C135.513 552.606 136.687 555.434 137.67 558.098C138.265 559.714 138.418 561.139 137.408 561.957C136.802 562.449 133.777 562.372 131.463 561.685C128.952 560.942 126.375 560.767 120.113 555.232C118.759 554.036 117.274 552.126 116.499 550.886C115.331 549.003 115.32 547.84 116.095 546.585C116.816 545.394 117.891 543.702 119.005 542.725Z" fill="#4F443D"/>
<path d="M138.435 546.197C139.75 545.051 140.924 543.549 142.152 541C142.649 539.968 142.998 538.057 143.331 536.31C143.67 534.569 143.452 533.603 144.216 533.619C145.733 533.652 147.731 534.247 149.118 534.678C150.581 535.131 151.395 536.005 151.848 538.15C152.148 539.559 152.383 541.917 152.213 543.658C151.433 551.716 149.626 553.452 148.272 555.581C147.027 557.541 144.816 559.49 144.019 559.501C142.687 559.517 141.792 558.36 141.099 556.777C139.952 554.173 138.839 551.323 138.112 548.637C137.845 547.633 137.774 546.776 138.435 546.197Z" fill="#4F443D"/>
<path d="M809.844 378.672C809.844 378.672 801.683 373.344 801.29 373.164L801.279 373.158C799.723 372.427 797.785 372.525 795.661 373.753L786.19 379.223C781.156 382.128 777.035 390 777.035 396.714V434.197C777.035 438.057 778.421 440.672 780.539 441.692L780.534 441.703L787.735 446.507L790.257 438.772L795.661 435.655C800.695 432.745 804.816 424.878 804.816 418.163V394.105L809.844 378.672Z" fill="#DBD6D1"/>
<path d="M803.626 440.846L794.154 446.316C789.121 449.221 784.999 446.109 784.999 439.394V401.912C784.999 395.197 789.121 387.33 794.154 384.421L803.626 378.95C808.659 376.046 812.781 379.158 812.781 385.873V423.355C812.781 430.07 808.659 437.942 803.626 440.846Z" fill="#CEC6BE"/>
<path d="M870.01 545.383C852.918 522.515 795.903 458.485 795.903 458.485L748.834 311.017C742.922 291.921 729.994 275.773 712.662 265.826L285.855 20.9343C283.354 19.4985 280.526 19.8097 278.441 21.24L278.446 21.2509L38.4297 160.263L547.866 678.079L646.568 822.511L885.995 683.937V584.673C886 572.494 877.309 555.144 870.01 545.383Z" fill="#F2EDE9"/>
<path d="M516.384 434.246L566.996 590.296L785.82 464.577L735.208 308.528L516.384 434.246Z" fill="#45A0D8"/>
<path d="M767.077 456.334C673.628 474.54 559.799 568.099 559.799 568.099L567 590.296L785.824 464.577L735.212 308.528L714.626 320.352C714.626 320.352 732.712 413.147 767.077 456.334Z" fill="#3C89CE"/>
<path d="M687.402 525.337L634.601 362.54L625.075 367.972L677.734 530.333L687.402 525.337Z" fill="#F2EDE9"/>
<path d="M646.573 796.995L885.803 658.535L886 683.942L646.573 822.517V796.995Z" fill="#CEC6BE"/>
<path d="M684.339 710.239V774.81L849.812 679.274V614.704L684.339 710.239Z" fill="#6B5F56"/>
<path d="M857.029 645.974L879.384 633.063V603.256L857.029 616.167V645.974Z" fill="#EC4F46"/>
<path d="M857.029 666.26L879.384 653.355V641.263L857.029 654.168V666.26Z" fill="#EC4F46"/>
<path d="M654.772 764.443L677.127 751.532V721.725L654.772 734.636V764.443Z" fill="#EC4F46"/>
<path d="M654.772 784.729L677.127 771.823V759.731L654.772 772.637V784.729Z" fill="#EC4F46"/>
<path d="M849.812 646.989L684.339 742.524V727.402L849.812 631.862V646.989Z" fill="#4F443D"/>
<path d="M849.812 679.274L684.339 774.809V759.688L849.812 664.153V679.274Z" fill="#4F443D"/>
<path d="M706.428 526.238L781.163 483.313L798.409 502.42L723.575 545.837L706.428 526.238Z" fill="#CEC6BE"/>
<path d="M592.408 591.934L667.143 549.014L684.394 568.115L609.555 611.537L592.408 591.934Z" fill="#CEC6BE"/>
<path d="M646.573 822.517V723.259C646.573 711.074 637.882 693.725 630.583 683.959C613.49 661.09 556.475 597.06 556.475 597.06L509.406 449.587C503.494 430.49 490.567 414.342 473.228 404.396L46.427 159.509C41.7867 156.851 36 160.197 36 165.547V469.944L79.029 494.99C79.0017 494.079 78.9908 493.172 78.9908 492.266C78.9908 452.283 103.3 433.908 133.282 451.224C163.269 468.535 187.573 514.982 187.573 554.959C187.573 555.865 187.562 556.76 187.535 557.645L195.516 562.061L461.906 715.889C461.906 715.889 461.862 714.071 461.862 713.165C461.862 673.182 486.172 654.807 516.154 672.123C546.141 689.434 570.445 735.881 570.445 775.858C570.445 776.764 570.434 777.659 570.407 778.544L646.573 822.517Z" fill="#DBD6D1"/>
<path d="M632.75 788.703C627.378 785.477 620.538 789.347 620.538 795.62V807.488L646.567 822.522V797.001L632.75 788.703Z" fill="#B2A89E"/>
<path d="M324.428 346.201V636.497L439.404 702.885V412.579L324.428 346.201Z" fill="#CEC6BE"/>
<path d="M278.626 72.8235C284.855 69.226 294.371 68.8329 299.764 71.9446L629.491 262.425C630.528 263.026 631.271 263.73 631.86 264.472C634.055 261.366 633.362 257.91 629.491 255.678L299.764 65.1971C294.371 62.0799 284.855 62.4785 278.626 66.076C273.593 68.9803 272.25 73.1074 274.739 76.2355C275.602 75.0127 276.868 73.8389 278.626 72.8235Z" fill="#CEC6BE"/>
<path d="M277.11 78.2771L606.837 268.758C612.23 271.875 621.746 271.476 627.975 267.884C629.732 266.869 630.999 265.695 631.861 264.478C631.272 263.735 630.529 263.031 629.492 262.431L299.765 71.95C294.372 68.8328 284.856 69.2313 278.627 72.8289C276.87 73.8443 275.603 75.018 274.74 76.2354C275.33 76.9779 276.073 77.6766 277.11 78.2771Z" fill="#DBD6D1"/>
<path d="M230.891 100.747C237.12 97.1493 246.635 96.7563 252.029 99.868L581.756 290.348C582.793 290.944 583.536 291.653 584.125 292.396C586.32 289.289 585.627 285.834 581.756 283.601L252.029 93.115C246.635 89.9979 237.12 90.3964 230.891 93.9939C225.858 96.8982 224.515 101.025 227.004 104.153C227.867 102.931 229.133 101.762 230.891 100.747Z" fill="#CEC6BE"/>
<path d="M229.374 106.195L559.101 296.676C564.495 299.793 574.01 299.394 580.239 295.797C581.997 294.781 583.263 293.608 584.126 292.39C583.536 291.648 582.794 290.944 581.756 290.343L252.029 99.868C246.636 96.7508 237.12 97.1494 230.892 100.747C229.134 101.762 227.867 102.936 227.005 104.153C227.6 104.896 228.342 105.6 229.374 106.195Z" fill="#DBD6D1"/>
<path d="M183.173 128.665C189.402 125.068 198.918 124.675 204.311 127.792L534.038 318.272C535.075 318.867 535.818 319.577 536.407 320.314C538.602 317.208 537.909 313.752 534.038 311.519L204.311 121.039C198.918 117.922 189.402 118.32 183.173 121.918C178.14 124.822 176.797 128.949 179.287 132.077C180.149 130.854 181.41 129.681 183.173 128.665Z" fill="#CEC6BE"/>
<path d="M181.656 134.119L511.383 324.599C516.776 327.717 526.292 327.318 532.52 323.726C534.278 322.71 535.545 321.537 536.407 320.319C535.818 319.577 535.075 318.873 534.038 318.278L204.311 127.786C198.917 124.669 189.402 125.062 183.173 128.66C181.415 129.675 180.149 130.849 179.286 132.066C179.876 132.814 180.618 133.518 181.656 134.119Z" fill="#DBD6D1"/>
<path d="M135.45 156.589C141.678 152.991 151.194 152.598 156.587 155.71L486.314 346.19C487.352 346.791 488.094 347.495 488.684 348.237C490.878 345.131 490.185 341.675 486.314 339.443L156.587 148.957C151.194 145.839 141.678 146.238 135.45 149.83C130.416 152.734 129.073 156.861 131.563 159.99C132.425 158.772 133.692 157.604 135.45 156.589Z" fill="#CEC6BE"/>
<path d="M133.932 162.037L463.659 352.517C469.053 355.635 478.568 355.236 484.797 351.638C486.555 350.623 487.821 349.449 488.684 348.232C488.094 347.489 487.352 346.785 486.314 346.185L156.587 155.71C151.194 152.592 141.679 152.991 135.45 156.589C133.692 157.604 132.425 158.778 131.563 159.995C132.152 160.738 132.895 161.442 133.932 162.037Z" fill="#DBD6D1"/>
<path d="M335.549 480.545L427.88 533.854V418.278L335.549 364.97V480.545Z" fill="#45A0D8"/>
<path d="M484.502 566.27L452.784 547.9V418.666L461.055 423.421C475.985 432.008 487.133 445.901 492.281 462.339L533.792 594.816L518.097 585.727L484.502 566.27Z" fill="#45A0D8"/>
<path d="M360.704 522.046L338.796 509.397C335.745 507.634 333.25 502.862 333.25 498.795C333.25 494.728 335.745 492.839 338.796 494.597L360.704 507.246C363.756 509.009 366.251 513.781 366.251 517.848C366.256 521.92 363.756 523.809 360.704 522.046Z" fill="#3F352F"/>
<path d="M513.855 591.235C513.855 591.235 537.444 595.968 542.428 592.971C547.418 589.979 547.069 580.475 540.616 578.641C534.158 576.807 520.204 578.641 520.204 578.641L513.855 591.235Z" fill="#3F352F"/>
<path d="M522.229 546.448C522.229 546.448 514.067 541.125 513.674 540.94L513.664 540.934C512.108 540.203 510.17 540.301 508.052 541.524L498.574 546.994C493.541 549.898 489.419 557.77 489.419 564.485V601.967C489.419 605.827 490.806 608.442 492.924 609.463L492.919 609.474L500.119 614.278L502.641 606.542L508.046 603.425C513.079 600.521 517.201 592.649 517.201 585.934V561.876L522.229 546.448Z" fill="white"/>
<path d="M516.011 608.622L506.539 614.092C501.506 617.002 497.384 613.885 497.384 607.17V569.688C497.384 562.973 501.506 555.106 506.539 552.197L516.011 546.726C521.044 543.822 525.166 546.934 525.166 553.649V591.131C525.166 597.846 521.044 605.713 516.011 608.622Z" fill="#CEC6BE"/>
<path d="M529.857 383.635L696.388 287.472C696.388 287.472 687.419 306.759 638.155 337.024C578.634 373.601 529.857 383.635 529.857 383.635Z" fill="white"/>
<path d="M373.721 881.151L323.777 881.227C324.094 888.236 324.475 894.099 324.955 897.036C326.771 908.245 321.4 912.995 314.458 917.542C307.522 922.09 289.223 931.402 288.004 944.432C286.785 957.468 293.156 963.111 311.482 967.651C321.473 970.128 332.782 964.055 341.617 956.964C351.183 949.289 361.49 936.356 361.509 931.621C375.856 926.641 376.073 918.856 370.298 897.984C371.88 892.583 372.967 886.879 373.721 881.151Z" fill="#3D322C"/>
<path d="M387.612 758.397L365.627 782.64C369.678 788.503 373.173 793.344 375.164 795.635C382.773 804.369 380.723 811.065 377.22 818.353C373.717 825.641 363.031 842.559 369.021 854.333C375.01 866.112 383.52 867.853 401.708 862.812C411.619 860.063 418.051 849.331 421.81 838.938C425.88 827.682 427.753 811.552 425.211 807.484C434.842 796.214 430.823 789.427 414.606 774.322C413.046 768.926 390.052 763.686 387.612 758.397Z" fill="#3D322C"/>
<path d="M259.805 415.004C259.805 415.004 265.277 442.67 267.379 461.769C269.149 459.727 289.559 428.167 289.559 428.167L318.219 450.808C318.219 450.808 313.632 460.843 301.406 476.567C295.211 484.535 283.918 495.702 267.212 506.177C263.232 508.675 252.784 505.691 249.884 502.101C244.724 495.706 233.791 491.322 232.467 465.082C230.975 435.594 237.353 415.038 237.353 415.038L259.805 415.004Z" fill="#FFC9B6"/>
<path d="M328.466 471.32C305.251 466.638 287.274 451.084 273.621 433.143C277.409 428.619 285.877 419.644 289.53 417.178C299.568 381.053 323.057 376.982 334.741 382.407C356.432 392.476 360.424 415.353 351.124 434.55C346.289 444.561 335.096 462.465 328.466 471.32Z" fill="#E0D1D1"/>
<path d="M305.663 658.094C288.316 658.12 273.3 647.984 263.147 629.288C260.689 624.761 258.874 618.64 257.631 611.285C254.163 607.354 251.366 602.933 249.41 598.139C233.568 559.233 248.397 471.559 265.569 428.289C277.22 398.906 293.494 387.148 307.054 382.795C322.374 369.787 334.532 369.812 342.052 372.119C351.999 375.184 360.103 384.419 362.682 395.659C364.014 401.446 365.519 413.461 366.735 429.029C378.179 486.733 377.509 574.331 364.893 608.11C354.134 636.904 331.999 656.486 308.506 658.003C307.554 658.06 306.602 658.092 305.663 658.094ZM261.64 615.345C262.775 620.301 264.229 624.526 266.053 627.87C276.114 646.418 291.148 656.052 308.292 654.91C330.495 653.476 351.51 634.701 361.834 607.074C372.509 578.51 374.228 516.986 368.674 464.875C370.173 512.145 367.965 569.92 355.04 597.874C345.313 618.912 325.219 631.109 301.521 630.668C286.136 630.338 271.837 624.601 261.64 615.345ZM260.549 609.768C270.227 620.445 285.257 627.221 301.588 627.569C324.191 628.148 342.878 616.474 352.053 596.626C368.226 561.639 367.359 479.139 363.615 430.428C358.214 402.744 350.256 382.24 340.12 378.518C334.908 376.599 329.895 377.189 324.802 380.295C324.659 380.382 324.522 380.469 324.379 380.556C329.197 380.816 332.217 381.735 332.334 381.772L331.289 384.711C330.78 384.551 326.827 383.311 320.634 383.413C299.365 402.343 284.597 461.748 282.286 498.642L282.057 502.281C279.173 548.051 275.9 599.927 299.76 612.721L298.16 615.426C272.519 601.674 275.709 551.056 278.803 502.1L279.026 498.461C281.331 461.704 295.054 405.734 315.739 383.774C313.679 384.037 311.496 384.474 309.202 385.141C278.386 411.38 250.74 550.499 260.549 609.768ZM302.25 387.798C290.876 393.263 278.272 405.04 268.615 429.382C251.632 472.198 236.886 558.788 252.453 597.025C253.585 599.812 255.029 602.457 256.735 604.952C249.799 545.238 273.925 422.55 302.25 387.798ZM334.187 374.313C336.54 374.309 338.921 374.745 341.295 375.616C349.436 378.61 356.09 390.227 361.265 406.916C360.665 402.387 360.066 398.78 359.502 396.321C357.166 386.135 349.917 377.791 341.046 375.065C332.939 372.56 323.881 374.644 314.542 381.03C316.132 380.786 317.657 380.635 319.092 380.552C320.381 379.453 321.696 378.49 323.044 377.676C326.692 375.446 330.425 374.318 334.187 374.313Z" fill="#B2A89E"/>
<path d="M272.522 703.111C272.259 710.103 267.157 733.93 279.583 742.452C301.172 753.662 321.226 741.149 345.044 735.12C350.539 730.066 355.003 724.723 359.276 717.83C385.361 675.781 385.908 623.748 377.376 576.978C377.021 575.039 375.33 573.269 373.185 573.092C358.339 571.906 310.016 544.789 310.016 544.789C262.925 572.838 272.967 691.204 272.522 703.111Z" fill="#3C89CE"/>
<path d="M279.582 742.452C280.405 743.486 281.221 744.513 282.012 745.485C287.812 752.604 319.72 789.13 341.087 813.369C352.914 826.789 355.782 835.176 362.804 835.736C386.908 837.646 398.112 814.578 398.012 803.918C397.84 785.386 362.864 733.345 342.892 713.263C326.069 728.473 302.381 738.761 279.582 742.452Z" fill="#3C89CE"/>
<path d="M340.687 633.944C327.733 620.458 327.331 600.569 338.192 566.185C355.374 550.874 406.692 576.302 426.706 580.821C441.708 598.512 431.793 620.883 421.422 642.939C421.442 664.762 416.226 695.078 412.215 728.404C411.204 736.761 404.73 762.139 394.542 767.72C397.373 781.662 406.688 802.411 398.062 832.106C390.013 859.811 377.088 891.515 372.925 901.983C360.401 906.124 332.071 911.832 318.882 894.082C319.132 869.872 318.749 806.145 318.596 743.917C314.525 732.823 338.184 664.107 340.687 633.944Z" fill="#45A0D8"/>
<path d="M428.379 582.919L431.166 589.937C431.166 589.937 419.05 604.62 391.309 608.195C363.569 611.77 338.137 607.47 326.455 603.05C314.772 598.623 310.081 587.22 310.081 587.22C310.081 587.22 374.343 597.523 391.286 592.954C408.229 588.392 428.379 582.919 428.379 582.919Z" fill="#3C89CE"/>
<path d="M431.13 565.753C428.817 553.838 411.951 553.058 411.951 553.058L405.387 575.163C405.387 575.163 434.474 582.96 431.13 565.753Z" fill="#3C89CE"/>
<path d="M304.857 565.008C298.08 554.11 302.387 513.203 306.206 495.421C297.856 465.987 294.655 444.342 300.969 420.483C304.904 405.614 319.129 388.505 338.353 387.54C347.726 387.073 379.448 399.545 385.431 402.666C410.051 409.267 424.723 420.413 441.321 437.749C443.378 439.896 435.17 509.035 431.07 521.989C426.288 537.101 429.015 560.215 425.36 574.327C427.206 588.053 382.933 596.196 369.868 596.265C325.062 596.513 314.111 584.66 304.857 565.008Z" fill="#F9EFEF"/>
<path d="M411.951 553.058C411.951 553.058 401.658 558.453 387.826 555.028C373.987 551.603 366.382 544.555 366.382 544.555C366.382 544.555 383.848 549.889 391.654 551.235C399.466 552.568 411.951 553.058 411.951 553.058Z" fill="#D6C9D4"/>
<path d="M401.217 408.077C401.217 408.077 399.263 422.125 381.996 427.834C355.873 436.471 337.347 424.71 332.288 411.572C327.229 398.433 343.263 387.526 343.263 387.526C343.263 387.526 376.223 390.947 401.217 408.077Z" fill="white"/>
<path d="M343.174 380.634C348.697 381.685 357.996 383.345 363.497 382.314C370.796 380.951 379.038 377.511 385.06 372.339C385.593 379.559 388.058 397.945 391.538 405.21C395.507 413.515 376.289 422.129 359.806 420.462C348.278 419.295 338.087 409.79 338.12 405.712C341.57 393.9 341.95 386.152 343.174 380.634Z" fill="#FFB9A4"/>
<path d="M325.603 344.928C327.231 334.935 331.006 322.558 339.974 316.26C348.837 310.03 362.705 310.802 373.047 312.602C389.075 315.398 398.445 333.594 393.272 352.939C388.494 370.803 372.445 397.41 350.718 398.937C339.657 399.71 332.166 391.094 328.376 380.662C323.878 368.297 324.26 353.174 325.603 344.928Z" fill="#FFC9B6"/>
<path d="M328.151 322.897C327.962 322.897 318.438 327.275 310.725 326.754C300.378 326.051 299.268 316.823 299.268 316.823C299.268 316.823 312.034 313.339 319.729 314.332C327.423 315.33 328.151 322.897 328.151 322.897Z" fill="#45A0D8"/>
<path d="M398.624 357.028C398.624 357.028 399.811 357.739 396.426 365.113C393.041 372.488 386.211 382.514 386.211 382.514C386.211 382.514 381.388 379.33 381.894 368.854C382.399 358.379 386.166 352.826 386.166 352.826C386.166 352.826 374.969 354.845 362.751 346.044C350.534 337.242 348.934 330.687 348.934 330.687C348.934 330.687 339.5 343.624 326.715 342.987C313.93 342.349 300.897 324.655 313.708 320.644C326.512 316.627 355.692 320.419 355.692 320.419C355.692 320.419 399.437 343.087 398.624 357.028Z" fill="#3D322C"/>
<path d="M398.829 360.337C389.058 339.508 352.958 315.701 326.127 317.278C326.27 317.055 326.367 316.838 326.517 316.615C340.736 295.408 355.893 290.663 386.069 302.914C416.245 315.165 408.401 340.142 406.815 343.151C406.425 343.901 403.215 355.069 398.829 360.337Z" fill="#45A0D8"/>
<path d="M382.339 340.2C382.339 340.2 373.679 325.89 352.608 316.718C326.11 305.18 299.268 316.823 299.268 316.823C299.268 316.823 318.622 319.812 326.536 328.1C334.449 336.381 339.042 342.993 354.585 343.224C373.1 343.493 382.339 340.2 382.339 340.2Z" fill="#3C89CE"/>
<path d="M400.049 740.1C397.938 741.188 395.628 748.449 388.153 754.578C380.678 760.707 375.049 762.581 375.049 762.581C375.049 762.581 376.846 752.829 387.12 748.14C397.387 743.451 400.049 740.1 400.049 740.1Z" fill="#3C89CE"/>
<path d="M372.721 767.766C372.721 767.766 382.235 773.262 383.814 778.763C385.394 784.265 386.647 789.779 386.647 789.779C386.647 789.779 380.278 789.82 377.345 781.915C374.413 774.011 372.721 767.766 372.721 767.766Z" fill="#3C89CE"/>
<path d="M303.704 716.563L312.398 775.45C312.402 778.524 314.434 781.403 317.977 783.337L389.487 822.444C392.331 823.995 395.899 824.852 399.543 824.846C402.685 824.841 405.527 824.192 407.748 822.968L520.111 761.072C523.01 759.475 524.675 756.962 524.671 754.173L528.883 690.011L303.704 716.563Z" fill="#493B36"/>
<path d="M534.641 685.999L529.301 686.007C529.04 685.84 528.831 685.642 528.544 685.494L449.818 642.437C446.687 640.725 442.761 639.789 438.751 639.795C435.29 639.8 432.161 640.518 429.712 641.866L306.002 710.015C305.761 710.152 305.579 710.325 305.351 710.474L300.976 710.481L300.987 717.615C300.992 721.005 303.226 724.169 307.128 726.301L385.854 769.358C388.979 771.07 392.912 772.006 396.921 772C400.383 771.994 403.504 771.277 405.96 769.928L529.664 701.78C532.856 700.021 534.684 697.254 534.679 694.186C534.685 693.82 534.641 685.999 534.641 685.999Z" fill="#332723"/>
<path d="M396.918 764.159C392.908 764.166 388.976 763.229 385.851 761.517L307.125 718.461C303.23 716.329 300.989 713.165 300.984 709.775C300.979 706.707 302.807 703.94 305.998 702.181L429.709 634.033C432.158 632.684 435.286 631.966 438.748 631.961C442.757 631.955 446.683 632.891 449.815 634.603L528.541 677.659C532.442 679.792 534.677 682.956 534.682 686.346C534.686 689.414 532.859 692.181 529.667 693.94L405.963 762.088C403.508 763.437 400.379 764.154 396.918 764.159Z" fill="#493B36"/>
<path d="M308.394 709.745L432.097 641.597C436.006 639.446 442.904 639.702 447.425 642.181L526.151 685.237C527.717 686.096 528.768 687.111 529.35 688.158C530.67 686.067 529.545 683.459 526.146 681.599L447.42 638.543C442.898 636.07 436 635.808 432.092 637.958L308.388 706.107C305.835 707.517 305.199 709.619 306.304 711.595C306.74 710.912 307.43 710.273 308.394 709.745Z" fill="#332723"/>
<path d="M309.502 714.516L388.228 757.572C392.749 760.044 399.647 760.306 403.555 758.15L527.259 690.002C528.223 689.467 528.92 688.834 529.349 688.151C528.761 687.105 527.716 686.084 526.15 685.231L447.424 642.175C442.903 639.702 436.005 639.44 432.097 641.591L308.393 709.739C307.429 710.273 306.732 710.906 306.303 711.589C306.891 712.648 307.936 713.663 309.502 714.516Z" fill="#544640"/>
<path d="M407.447 701.413L403.796 701.419L403.798 702.255L398.337 699.264C397.606 698.868 396.328 698.92 395.488 699.38L393.996 700.2L393.995 699.481L390.344 699.487L390.349 702.604L390.369 702.604C390.317 702.896 390.467 703.187 390.839 703.391L399.465 708.107C400.195 708.502 401.48 708.451 402.313 707.991L406.756 705.548C407.283 705.256 407.478 704.878 407.4 704.531L407.452 704.531L407.447 701.413Z" fill="#332723"/>
<path d="M399.461 704.878L390.835 700.162C390.104 699.76 390.201 699.059 391.035 698.593L395.477 696.144C396.318 695.684 397.602 695.627 398.326 696.028L406.951 700.745C407.682 701.14 407.586 701.847 406.752 702.313L402.309 704.755C401.469 705.222 400.191 705.273 399.461 704.878Z" fill="#493B36"/>
<path d="M436.323 685.583L432.679 685.589L432.681 686.425L427.219 683.44C426.489 683.044 425.205 683.096 424.371 683.556L422.879 684.376L422.878 683.663L419.234 683.669L419.238 686.787L419.258 686.787C419.206 687.078 419.357 687.369 419.729 687.573L428.354 692.289C429.085 692.691 430.363 692.633 431.203 692.173L435.645 689.731C436.173 689.438 436.368 689.06 436.289 688.713L436.341 688.713L436.337 685.583L436.323 685.583Z" fill="#332723"/>
<path d="M428.336 689.047L419.71 684.331C418.98 683.936 419.07 683.229 419.91 682.763L424.352 680.32C425.193 679.86 426.477 679.803 427.201 680.205L435.827 684.921C436.557 685.316 436.467 686.023 435.627 686.489L431.184 688.932C430.344 689.398 429.067 689.449 428.336 689.047Z" fill="#493B36"/>
<path d="M430.635 665.126L424.848 662.085L424.841 662.092C423.999 661.603 422.897 661.611 421.679 662.282L399.037 674.756C396.406 676.204 394.273 680.094 394.278 683.434L394.28 684.68L394.304 700.305L400.189 703.525L400.169 690.212C400.167 689.016 402.976 683.873 404.99 679.625L423.269 670.207C423.333 673.914 423.33 684.531 423.33 684.531L426.489 682.79L432.374 685.881L432.351 670.726L430.635 665.126Z" fill="#F77B28"/>
<path d="M429.208 687.608L423.323 684.518L423.262 670.195L429.18 668.556L430.513 675.328L429.208 687.608Z" fill="#E56813"/>
<path d="M400.164 686.518L400.19 703.519L403.349 701.779C403.349 701.779 403.305 690.046 403.372 687.17C403.421 684.846 403.856 683.817 404.819 682.588C406.452 680.497 408.324 680.816 411.693 679.689C414.814 678.649 415.114 678.488 416.26 677.854C417.413 677.22 417.706 677.052 420.825 674.661C424.192 672.071 426.059 669.695 427.696 669.984C428.661 670.156 429.092 670.707 429.154 672.969C429.224 675.77 429.222 687.602 429.222 687.602L432.381 685.862L432.355 668.787C432.35 665.446 430.21 663.912 427.578 665.366L404.936 677.84C402.285 679.294 400.159 683.178 400.164 686.518Z" fill="#FF8D40"/>
<path d="M418.812 550.146C418.812 550.146 406.384 587.78 405.887 608.551C405.728 615.418 405.568 621.728 405.427 627.121L432.644 627.079C440.07 605.803 452.252 569.65 454.46 555.261C457.682 534.289 442.135 470.758 442.135 470.758L401.755 470.819C401.755 470.819 406.921 519.837 409.65 531.609C412.387 543.388 418.812 550.146 418.812 550.146Z" fill="#FFC9B6"/>
<path d="M434.883 620.643C424.707 620.863 414.431 619.347 405.703 616.416C405.292 633.189 404.958 645.183 404.958 645.183C404.958 645.183 394.091 650.046 389.789 659.083C385.487 668.12 396.687 676.879 396.687 676.879C396.687 676.879 403.773 671.991 407.424 680.842C409.06 684.813 411.255 687.883 419.241 683.898C424.85 681.101 428.471 678.331 432.351 670.714C439.391 656.894 426.854 643.439 426.854 643.439C426.854 643.439 430.353 633.777 434.883 620.643Z" fill="#FFC9B6"/>
<path d="M414.848 425.033C439.151 415.929 448.471 435.804 453.372 461.041C455.376 471.339 450.813 488.477 450.497 495.227C453.297 501.644 453.448 511.406 453.448 511.406C453.448 511.406 445.267 516.11 419.421 513.639C401.439 511.918 394.836 512.307 394.836 512.307C394.836 512.307 392.464 500.559 395.227 495.478C386.157 481.286 383.026 436.957 414.848 425.033Z" fill="#E0D1D1"/>
<path d="M287.226 380.501C287.226 380.501 272.306 378.119 258.241 384.549C244.176 390.979 241.056 397.609 237.961 411.758C234.867 425.906 233.904 431.914 233.904 431.914C233.904 431.914 237.775 435.069 245.69 435.565C253.605 436.061 263.496 432.433 262.915 431.87C262.334 431.301 259.799 414.997 259.799 414.997C259.799 414.997 267.406 414.515 275.462 408.782C283.518 403.043 291.545 404.314 302.272 402.165C310.23 400.573 308.322 397.644 305.165 396.608C302.008 395.571 286.739 395.08 286.739 395.08C286.739 395.08 301.457 393.663 310.467 389.621C319.477 385.578 315.878 385.013 310.32 382.915C311.965 375.574 295.958 378.381 287.226 380.501Z" fill="#FFC9B6"/>
</g>
<defs>
<clipPath id="clip0_163_181">
<rect width="1134" height="1080" fill="white"/>
</clipPath>
</defs>
</svg>
