<svg width="80" height="80" viewBox="0 0 80 80" fill="none" xmlns="http://www.w3.org/2000/svg">
<circle cx="40" cy="40" r="40" fill="url(#paint0_linear_220_66)"/>
<g clip-path="url(#clip0_220_66)">
<path d="M61.4209 35.4604C61.9776 33.7767 62.1696 31.9938 61.9843 30.2301C61.799 28.4665 61.2405 26.7625 60.3459 25.2312C59.0158 22.9183 56.9859 21.0872 54.5487 20.0015C52.1115 18.9158 49.3925 18.6315 46.7834 19.1896C45.3015 17.541 43.4119 16.3112 41.3044 15.6239C39.1969 14.9365 36.9457 14.8157 34.7767 15.2736C32.6078 15.7314 30.5974 16.7518 28.9475 18.2324C27.2977 19.7129 26.0663 21.6014 25.3772 23.7083C23.6396 24.0666 21.9982 24.7907 20.5621 25.8324C19.126 26.8741 17.9281 28.2095 17.048 29.75C15.7054 32.0603 15.1318 34.7376 15.4101 37.3952C15.6883 40.0528 16.804 42.5532 18.5959 44.5354C18.0344 46.2181 17.8387 48.0014 18.022 49.7658C18.2052 51.5302 18.7631 53.2352 19.6584 54.7667C20.9892 57.0815 23.0207 58.914 25.4601 59.9999C27.8995 61.0857 30.6207 61.3688 33.2313 60.8083C34.4102 62.1334 35.8574 63.1925 37.4771 63.9152C39.0967 64.6379 40.8516 65.0077 42.6251 65C45.2991 65.0011 47.9045 64.1532 50.0656 62.5784C52.2267 61.0036 53.832 58.7833 54.6501 56.2375C56.3873 55.8789 58.0283 55.1547 59.464 54.113C60.8997 53.0714 62.0973 51.736 62.9772 50.1958C64.3038 47.8891 64.8676 45.2221 64.5882 42.5758C64.3087 39.9295 63.2002 37.4391 61.4209 35.4604ZM42.6251 61.7292C40.4356 61.7321 38.3147 60.9651 36.6334 59.5625L36.9272 59.3937L46.8834 53.6479C47.1301 53.5017 47.3349 53.2942 47.478 53.0457C47.621 52.7972 47.6975 52.5159 47.7001 52.2292V38.1937L51.9084 40.6271C51.9293 40.6375 51.9474 40.6527 51.9612 40.6716C51.975 40.6904 51.984 40.7123 51.9876 40.7354V52.3667C51.9821 54.8481 50.9939 57.2262 49.2393 58.9809C47.4847 60.7355 45.1065 61.7236 42.6251 61.7292ZM22.5001 53.1333C21.4011 51.2367 21.0065 49.0132 21.3855 46.8542L21.6813 47.0312L31.6459 52.7792C31.8923 52.9238 32.1728 53.0001 32.4584 53.0001C32.7441 53.0001 33.0246 52.9238 33.2709 52.7792L45.4438 45.7604V50.6187C45.443 50.6441 45.4363 50.6689 45.4244 50.6913C45.4125 50.7136 45.3956 50.733 45.3751 50.7479L35.2918 56.5625C33.1401 57.8012 30.5849 58.1358 28.1869 57.4929C25.7888 56.8501 23.7436 55.2822 22.5001 53.1333ZM19.8751 31.45C20.9834 29.5426 22.7288 28.0871 24.8043 27.3396V39.1667C24.8011 39.4524 24.8744 39.7339 25.0165 39.9818C25.1587 40.2298 25.3644 40.4353 25.6126 40.5771L37.7272 47.5646L33.5188 49.9979C33.4959 50.0093 33.4705 50.0152 33.4449 50.0152C33.4192 50.0152 33.3939 50.0093 33.3709 49.9979L23.3084 44.1937C21.16 42.9493 19.5923 40.9041 18.9488 38.5061C18.3052 36.1082 18.6383 33.5529 19.8751 31.4V31.45ZM54.4522 39.4812L42.3001 32.425L46.498 30C46.521 29.9886 46.5463 29.9827 46.572 29.9827C46.5976 29.9827 46.6229 29.9886 46.6459 30L56.7084 35.8146C58.2479 36.7019 59.503 38.009 60.3273 39.5832C61.1515 41.1573 61.5107 42.9335 61.363 44.7042C61.2153 46.475 60.5668 48.1671 59.4932 49.583C58.4196 50.9988 56.9653 52.0799 55.3001 52.7V40.8708C55.2914 40.5856 55.2086 40.3075 55.06 40.0639C54.9113 39.8202 54.7019 39.6195 54.4522 39.4812ZM58.6397 33.1833L58.3459 33.0062L48.4001 27.2104C48.1518 27.0658 47.8697 26.9897 47.5824 26.9897C47.2951 26.9897 47.0129 27.0658 46.7647 27.2104L34.6022 34.2292V29.3687C34.6005 29.3444 34.6049 29.32 34.6151 29.2977C34.6253 29.2755 34.6409 29.2563 34.6605 29.2417L44.723 23.4354C46.2654 22.5477 48.0286 22.1174 49.8065 22.1947C51.5844 22.272 53.3036 22.8538 54.7631 23.8719C56.2227 24.8901 57.3622 26.3027 58.0487 27.9445C58.7352 29.5864 58.9401 31.3897 58.6397 33.1437V33.1833ZM32.3063 41.7979L28.098 39.3729C28.0768 39.3602 28.0588 39.343 28.0451 39.3224C28.0314 39.3019 28.0224 39.2786 28.0188 39.2542V27.6562C28.0223 25.8773 28.5319 24.136 29.4881 22.6359C30.4442 21.1357 31.8074 19.9385 33.4186 19.1842C35.0297 18.4299 36.8222 18.1495 38.5867 18.3758C40.3512 18.6022 42.0149 19.3259 43.3834 20.4625L43.0876 20.6292L33.1334 26.375C32.8864 26.521 32.6812 26.7283 32.5377 26.9768C32.3943 27.2254 32.3175 27.5068 32.3147 27.7937L32.3063 41.7979ZM34.5918 36.8708L40.0126 33.7458L45.4438 36.8708V43.1187L40.0334 46.2437L34.6022 43.1187L34.5918 36.8708Z" fill="white"/>
</g>
<defs>
<linearGradient id="paint0_linear_220_66" x1="80" y1="7.96852" x2="-1.58246e-06" y2="72.0315" gradientUnits="userSpaceOnUse">
<stop stop-color="#1869FF"/>
<stop offset="1" stop-color="#0E3F99"/>
</linearGradient>
<clipPath id="clip0_220_66">
<rect width="50" height="50" fill="white" transform="translate(15 15)"/>
</clipPath>
</defs>
</svg>
