<svg width="343" height="101" viewBox="0 0 343 101" fill="none" xmlns="http://www.w3.org/2000/svg">
<path d="M87.3032 0H40.3244C18.0488 0 0 18.0548 0 40.3305V41.7978C0 64.0735 18.0488 82.1283 40.3244 82.1283H87.3032C109.579 82.1283 127.634 64.0735 127.634 41.7978V40.3305C127.634 18.0548 109.579 0 87.3032 0ZM107.568 64.152C102.007 69.8039 94.4224 72.6299 84.8154 72.6299C75.2083 72.6299 67.6059 69.7979 62.0144 64.1339C56.4228 58.4638 53.6331 50.7709 53.6331 41.0732C53.6331 31.3091 56.4168 23.5981 61.9902 17.9642C67.5697 12.3244 75.1781 9.49839 84.8093 9.49839C94.4164 9.49839 102.001 12.3244 107.562 17.9642C113.123 23.6041 115.907 31.3091 115.907 41.0732C115.913 50.8011 113.129 58.5 107.568 64.152Z" fill="#1869FF"/>
<path d="M169.993 63.5842C169.993 66.5129 169.141 68.7531 167.445 70.3171C165.742 71.875 163.308 72.66 160.126 72.66C156.89 72.66 154.432 71.9051 152.747 70.4016C151.062 68.892 150.217 66.6215 150.217 63.5782V49.0921L135.375 23.7248C135.151 23.3323 134.94 22.9156 134.747 22.4688C134.553 22.0219 134.354 21.5207 134.161 20.9592C133.907 20.0353 133.787 19.1054 133.787 18.1574C133.787 15.7299 134.711 13.6769 136.564 12.0042C138.418 10.3316 140.737 9.49225 143.527 9.49225C145.392 9.49225 147.005 9.96324 148.357 10.8992C149.71 11.8351 150.93 13.3146 152.017 15.3253L160.126 31.315L168.363 15.1382C168.864 14.1599 169.407 13.3266 169.993 12.6322C170.579 11.9378 171.231 11.3521 171.955 10.875C173.374 9.95721 175.089 9.49225 177.1 9.49225C179.721 9.49225 181.889 10.2953 183.603 11.8955C185.318 13.4957 186.176 15.5246 186.176 17.9762C186.176 18.9242 186.043 19.8964 185.777 20.9048C185.512 21.9072 185.155 22.7888 184.714 23.5376L169.999 49.1223V63.5842H169.993Z" fill="black"/>
<path d="M208.917 67.3461C208.246 69.1335 207.202 70.5224 205.783 71.5247C205.088 71.9716 204.297 72.3218 203.422 72.5694C202.546 72.823 201.616 72.9438 200.644 72.9438C197.915 72.9438 195.747 72.1829 194.141 70.6673C192.54 69.1456 191.737 67.0805 191.737 64.4598L191.864 62.286C191.949 61.7003 192.075 61.1689 192.239 60.6979L207.208 18.5559C208.379 15.1563 209.72 12.7953 211.241 11.4728C212.757 10.1504 214.762 9.48621 217.237 9.48621H222.968C225.504 9.48621 227.473 10.084 228.886 11.2857C230.292 12.4813 231.639 14.9087 232.919 18.5619L248.051 60.7039L248.51 62.4188L248.679 64.5504C248.679 67.0563 247.864 69.0852 246.234 70.631C244.604 72.1769 242.448 72.9498 239.773 72.9498C237.653 72.9498 235.89 72.4848 234.483 71.5489C233.076 70.6129 232.038 69.212 231.367 67.3461L229.985 63.7533H210.293L208.917 67.3461ZM213.971 50.8372H226.386L220.239 29.5156L213.971 50.8372Z" fill="black"/>
<path d="M276.305 63.6688C276.305 66.5974 275.52 68.8256 273.944 70.3593C272.368 71.8931 270.049 72.66 266.982 72.66C264.029 72.66 261.716 71.8447 260.044 70.2144C258.371 68.584 257.538 66.2894 257.538 63.3367V19.6066C257.538 16.4545 258.504 13.9848 260.442 12.1854C262.38 10.3859 265.061 9.48621 268.491 9.48621C270.919 9.48621 273.02 10.0357 274.801 11.1407C276.583 12.2397 278.231 14.0029 279.735 16.4304L292.403 37.2508C293.212 38.5068 294.016 40.0163 294.807 41.7856C295.604 43.5549 296.389 45.5415 297.168 47.7455L296.793 44.4848C296.793 43.5669 296.781 42.6793 296.751 41.8279C296.721 40.9765 296.697 40.1613 296.666 39.3823V18.8155C296.666 15.8869 297.488 13.6044 299.13 11.962C299.963 11.1528 300.954 10.5429 302.101 10.1202C303.248 9.69756 304.565 9.49225 306.074 9.49225C309.196 9.49225 311.551 10.2591 313.139 11.7929C314.727 13.3266 315.524 15.5548 315.524 18.4834V62.2558C315.524 65.6856 314.649 68.2761 312.892 70.0332C311.134 71.7904 308.532 72.666 305.072 72.666C302.143 72.666 299.77 72.1346 297.947 71.0779C296.123 70.0212 294.414 68.2097 292.826 65.6433L280.157 44.9497C279.348 43.6092 278.527 42.0392 277.694 40.2277C277.023 38.5853 276.383 36.7315 275.767 34.6663L276.184 38.4705L276.311 43.0718V63.6688H276.305Z" fill="black"/>
<path d="M207.42 90.2L206.06 85.86L204.74 90.2H207.42ZM205.08 82.32C205.107 82.2133 205.167 82.12 205.26 82.04C205.367 81.96 205.5 81.92 205.66 81.92H206.46C206.607 81.92 206.733 81.96 206.84 82.04C206.947 82.12 207.013 82.2133 207.04 82.32L211.14 95.4C211.14 95.4267 211.14 95.4467 211.14 95.46C211.153 95.4733 211.16 95.4933 211.16 95.52C211.16 95.6267 211.12 95.7333 211.04 95.84C210.96 95.9467 210.827 96 210.64 96H209.6C209.453 96 209.34 95.96 209.26 95.88C209.18 95.8 209.127 95.72 209.1 95.64L208 92.04H204.2L203.1 95.64C203.073 95.72 203.02 95.8 202.94 95.88C202.86 95.96 202.747 96 202.6 96H201.58C201.393 96 201.26 95.9467 201.18 95.84C201.1 95.7333 201.06 95.6267 201.06 95.52C201.06 95.4933 201.06 95.4733 201.06 95.46C201.073 95.4467 201.08 95.4267 201.08 95.4L205.08 82.32ZM210.734 83.76C210.548 83.76 210.408 83.7 210.314 83.58C210.221 83.46 210.174 83.3467 210.174 83.24V82.42C210.174 82.3133 210.221 82.2 210.314 82.08C210.408 81.96 210.548 81.9 210.734 81.9H219.514C219.701 81.9 219.841 81.96 219.934 82.08C220.028 82.2 220.074 82.3133 220.074 82.42V83.24C220.074 83.3467 220.028 83.46 219.934 83.58C219.841 83.7 219.701 83.76 219.514 83.76H216.134V95.48C216.134 95.5867 216.088 95.7 215.994 95.82C215.901 95.94 215.761 96 215.574 96H214.674C214.488 96 214.348 95.94 214.254 95.82C214.161 95.7 214.114 95.5867 214.114 95.48V83.76H210.734ZM233.51 82.2C233.55 82.1067 233.61 82.04 233.69 82C233.783 81.9467 233.883 81.92 233.99 81.92H235.03C235.216 81.92 235.35 81.9733 235.43 82.08C235.51 82.1867 235.55 82.2933 235.55 82.4C235.55 82.48 235.536 82.54 235.51 82.58L233.47 86.86C233.363 87.0733 233.256 87.2667 233.15 87.44C233.056 87.6 232.963 87.7667 232.87 87.94C232.696 88.2067 232.563 88.5533 232.47 88.98C232.416 89.1667 232.383 89.3467 232.37 89.52C232.37 89.68 232.376 89.8467 232.39 90.02C232.403 90.18 232.416 90.3533 232.43 90.54C232.456 90.7133 232.47 90.9133 232.47 91.14V95.52C232.47 95.6267 232.43 95.7333 232.35 95.84C232.27 95.9467 232.136 96 231.95 96H230.93C230.756 96 230.63 95.9467 230.55 95.84C230.47 95.7333 230.43 95.6267 230.43 95.52V91.3C230.43 91.1 230.436 90.9133 230.45 90.74C230.476 90.5667 230.496 90.4 230.51 90.24C230.523 90.0933 230.523 89.94 230.51 89.78C230.51 89.6067 230.483 89.4267 230.43 89.24C230.376 89.0133 230.31 88.82 230.23 88.66C230.163 88.4867 230.083 88.3133 229.99 88.14C229.883 87.98 229.776 87.8133 229.67 87.64C229.576 87.4667 229.476 87.2667 229.37 87.04L227.23 82.58C227.203 82.54 227.19 82.48 227.19 82.4C227.19 82.2933 227.23 82.1867 227.31 82.08C227.39 81.9733 227.523 81.92 227.71 81.92H228.75C228.856 81.92 228.95 81.9467 229.03 82C229.123 82.04 229.19 82.1067 229.23 82.2L231.37 86.68L233.51 82.2ZM238.137 92.96C238.137 93.32 238.277 93.6467 238.557 93.94C238.837 94.22 239.191 94.36 239.617 94.36H240.077C240.504 94.36 240.857 94.22 241.137 93.94C241.417 93.66 241.557 93.3333 241.557 92.96V85.12C241.557 84.7467 241.417 84.42 241.137 84.14C240.857 83.86 240.504 83.72 240.077 83.72H239.617C239.191 83.72 238.837 83.8667 238.557 84.16C238.277 84.44 238.137 84.76 238.137 85.12V92.96ZM236.117 85.26C236.117 84.8067 236.211 84.38 236.397 83.98C236.584 83.5667 236.844 83.2067 237.177 82.9C237.511 82.58 237.911 82.3333 238.377 82.16C238.844 81.9733 239.364 81.88 239.937 81.88C240.484 81.88 240.984 81.98 241.437 82.18C241.891 82.3667 242.277 82.62 242.597 82.94C242.917 83.26 243.164 83.62 243.337 84.02C243.511 84.42 243.597 84.8333 243.597 85.26V92.82C243.597 93.2733 243.504 93.7067 243.317 94.12C243.144 94.5333 242.891 94.9 242.557 95.22C242.224 95.5267 241.817 95.7733 241.337 95.96C240.871 96.1333 240.351 96.22 239.777 96.22C239.217 96.22 238.711 96.1267 238.257 95.94C237.817 95.74 237.437 95.48 237.117 95.16C236.797 94.84 236.551 94.48 236.377 94.08C236.204 93.6667 236.117 93.2467 236.117 92.82V85.26ZM245.377 82.44C245.377 82.3333 245.417 82.22 245.497 82.1C245.59 81.98 245.73 81.92 245.917 81.92H246.837C247.024 81.92 247.164 81.98 247.257 82.1C247.35 82.22 247.397 82.3333 247.397 82.44V92.62C247.397 92.8733 247.444 93.12 247.537 93.36C247.644 93.5867 247.784 93.7933 247.957 93.98C248.144 94.1533 248.357 94.2933 248.597 94.4C248.85 94.5067 249.13 94.56 249.437 94.56H249.717C250.024 94.56 250.297 94.5067 250.537 94.4C250.79 94.2933 251.004 94.1533 251.177 93.98C251.364 93.7933 251.504 93.5867 251.597 93.36C251.704 93.12 251.757 92.8733 251.757 92.62V82.44C251.757 82.3333 251.797 82.22 251.877 82.1C251.97 81.98 252.11 81.92 252.297 81.92H253.217C253.404 81.92 253.544 81.98 253.637 82.1C253.73 82.22 253.777 82.3333 253.777 82.44V92.56C253.777 93.0133 253.684 93.46 253.497 93.9C253.31 94.34 253.044 94.7333 252.697 95.08C252.364 95.4133 251.95 95.6867 251.457 95.9C250.977 96.1133 250.444 96.22 249.857 96.22H249.297C248.697 96.22 248.157 96.1133 247.677 95.9C247.197 95.6867 246.784 95.4133 246.437 95.08C246.104 94.7333 245.844 94.34 245.657 93.9C245.47 93.46 245.377 93.0133 245.377 92.56V82.44ZM258.51 89.16C258.897 89.16 259.244 89.0867 259.55 88.94C259.857 88.7933 260.117 88.6067 260.33 88.38C260.544 88.14 260.71 87.8733 260.83 87.58C260.95 87.2733 261.01 86.9667 261.01 86.66V86.16C261.01 85.8667 260.95 85.58 260.83 85.3C260.71 85.02 260.537 84.7733 260.31 84.56C260.097 84.3467 259.837 84.1733 259.53 84.04C259.237 83.9067 258.904 83.84 258.53 83.84H257.75V89.16H258.51ZM257.75 95.48C257.75 95.5867 257.704 95.7 257.61 95.82C257.517 95.94 257.377 96 257.19 96H256.29C256.117 96 255.977 95.9467 255.87 95.84C255.777 95.72 255.73 95.6 255.73 95.48V82.44C255.73 82.32 255.777 82.2067 255.87 82.1C255.977 81.98 256.117 81.92 256.29 81.92H258.69C259.344 81.92 259.937 82.04 260.47 82.28C261.004 82.5067 261.457 82.8133 261.83 83.2C262.217 83.5733 262.51 84 262.71 84.48C262.924 84.96 263.03 85.4533 263.03 85.96V86.86C263.03 87.5133 262.87 88.1533 262.55 88.78C262.23 89.4067 261.75 89.9267 261.11 90.34C261.164 90.4333 261.257 90.62 261.39 90.9C261.537 91.18 261.697 91.5067 261.87 91.88C262.044 92.2533 262.23 92.6467 262.43 93.06C262.63 93.46 262.81 93.8333 262.97 94.18C263.13 94.5267 263.264 94.82 263.37 95.06C263.477 95.3 263.53 95.4333 263.53 95.46C263.53 95.5667 263.484 95.6867 263.39 95.82C263.297 95.94 263.15 96 262.95 96H262.03C261.777 96 261.604 95.8933 261.51 95.68L259.27 91.02C259.137 91.0467 259.004 91.06 258.87 91.06C258.737 91.06 258.604 91.0667 258.47 91.08C258.35 91.08 258.23 91.08 258.11 91.08C257.99 91.0667 257.87 91.06 257.75 91.06V95.48ZM274.892 94.16C275.252 94.16 275.578 94.0933 275.872 93.96C276.178 93.8267 276.438 93.6533 276.652 93.44C276.878 93.2267 277.052 92.98 277.172 92.7C277.292 92.42 277.352 92.1333 277.352 91.84V86.08C277.352 85.7867 277.292 85.5 277.172 85.22C277.052 84.94 276.878 84.6933 276.652 84.48C276.438 84.2667 276.178 84.0933 275.872 83.96C275.578 83.8267 275.252 83.76 274.892 83.76H273.512V94.16H274.892ZM271.492 82.84C271.492 82.64 271.565 82.44 271.712 82.24C271.872 82.0267 272.112 81.92 272.432 81.92H274.732C275.438 81.92 276.072 82.0467 276.632 82.3C277.205 82.54 277.692 82.86 278.092 83.26C278.505 83.66 278.818 84.12 279.032 84.64C279.258 85.1467 279.372 85.6733 279.372 86.22V91.7C279.372 92.2333 279.258 92.76 279.032 93.28C278.818 93.8 278.505 94.26 278.092 94.66C277.692 95.06 277.205 95.3867 276.632 95.64C276.072 95.88 275.438 96 274.732 96H272.432C272.125 96 271.892 95.9 271.732 95.7C271.572 95.4867 271.492 95.2867 271.492 95.1V82.84ZM283.001 92.96C283.001 93.32 283.141 93.6467 283.421 93.94C283.701 94.22 284.054 94.36 284.481 94.36H284.941C285.367 94.36 285.721 94.22 286.001 93.94C286.281 93.66 286.421 93.3333 286.421 92.96V85.12C286.421 84.7467 286.281 84.42 286.001 84.14C285.721 83.86 285.367 83.72 284.941 83.72H284.481C284.054 83.72 283.701 83.8667 283.421 84.16C283.141 84.44 283.001 84.76 283.001 85.12V92.96ZM280.981 85.26C280.981 84.8067 281.074 84.38 281.261 83.98C281.447 83.5667 281.707 83.2067 282.041 82.9C282.374 82.58 282.774 82.3333 283.241 82.16C283.707 81.9733 284.227 81.88 284.801 81.88C285.347 81.88 285.847 81.98 286.301 82.18C286.754 82.3667 287.141 82.62 287.461 82.94C287.781 83.26 288.027 83.62 288.201 84.02C288.374 84.42 288.461 84.8333 288.461 85.26V92.82C288.461 93.2733 288.367 93.7067 288.181 94.12C288.007 94.5333 287.754 94.9 287.421 95.22C287.087 95.5267 286.681 95.7733 286.201 95.96C285.734 96.1333 285.214 96.22 284.641 96.22C284.081 96.22 283.574 96.1267 283.121 95.94C282.681 95.74 282.301 95.48 281.981 95.16C281.661 94.84 281.414 94.48 281.241 94.08C281.067 93.6667 280.981 93.2467 280.981 92.82V85.26ZM292.18 92.96C292.18 93.32 292.32 93.6467 292.6 93.94C292.88 94.22 293.234 94.36 293.66 94.36H294.12C294.547 94.36 294.9 94.22 295.18 93.94C295.46 93.66 295.6 93.3333 295.6 92.96V85.12C295.6 84.7467 295.46 84.42 295.18 84.14C294.9 83.86 294.547 83.72 294.12 83.72H293.66C293.234 83.72 292.88 83.8667 292.6 84.16C292.32 84.44 292.18 84.76 292.18 85.12V92.96ZM290.16 85.26C290.16 84.8067 290.254 84.38 290.44 83.98C290.627 83.5667 290.887 83.2067 291.22 82.9C291.554 82.58 291.954 82.3333 292.42 82.16C292.887 81.9733 293.407 81.88 293.98 81.88C294.527 81.88 295.027 81.98 295.48 82.18C295.934 82.3667 296.32 82.62 296.64 82.94C296.96 83.26 297.207 83.62 297.38 84.02C297.554 84.42 297.64 84.8333 297.64 85.26V92.82C297.64 93.2733 297.547 93.7067 297.36 94.12C297.187 94.5333 296.934 94.9 296.6 95.22C296.267 95.5267 295.86 95.7733 295.38 95.96C294.914 96.1333 294.394 96.22 293.82 96.22C293.26 96.22 292.754 96.1267 292.3 95.94C291.86 95.74 291.48 95.48 291.16 95.16C290.84 94.84 290.594 94.48 290.42 94.08C290.247 93.6667 290.16 93.2467 290.16 92.82V85.26ZM302.28 89.16C302.667 89.16 303.013 89.0867 303.32 88.94C303.627 88.7933 303.887 88.6067 304.1 88.38C304.313 88.14 304.48 87.8733 304.6 87.58C304.72 87.2733 304.78 86.9667 304.78 86.66V86.16C304.78 85.8667 304.72 85.58 304.6 85.3C304.48 85.02 304.307 84.7733 304.08 84.56C303.867 84.3467 303.607 84.1733 303.3 84.04C303.007 83.9067 302.673 83.84 302.3 83.84H301.52V89.16H302.28ZM301.52 95.48C301.52 95.5867 301.473 95.7 301.38 95.82C301.287 95.94 301.147 96 300.96 96H300.06C299.887 96 299.747 95.9467 299.64 95.84C299.547 95.72 299.5 95.6 299.5 95.48V82.44C299.5 82.32 299.547 82.2067 299.64 82.1C299.747 81.98 299.887 81.92 300.06 81.92H302.46C303.113 81.92 303.707 82.04 304.24 82.28C304.773 82.5067 305.227 82.8133 305.6 83.2C305.987 83.5733 306.28 84 306.48 84.48C306.693 84.96 306.8 85.4533 306.8 85.96V86.86C306.8 87.5133 306.64 88.1533 306.32 88.78C306 89.4067 305.52 89.9267 304.88 90.34C304.933 90.4333 305.027 90.62 305.16 90.9C305.307 91.18 305.467 91.5067 305.64 91.88C305.813 92.2533 306 92.6467 306.2 93.06C306.4 93.46 306.58 93.8333 306.74 94.18C306.9 94.5267 307.033 94.82 307.14 95.06C307.247 95.3 307.3 95.4333 307.3 95.46C307.3 95.5667 307.253 95.6867 307.16 95.82C307.067 95.94 306.92 96 306.72 96H305.8C305.547 96 305.373 95.8933 305.28 95.68L303.04 91.02C302.907 91.0467 302.773 91.06 302.64 91.06C302.507 91.06 302.373 91.0667 302.24 91.08C302.12 91.08 302 91.08 301.88 91.08C301.76 91.0667 301.64 91.06 301.52 91.06V95.48ZM310.259 92.82C310.259 93.2467 310.366 93.6067 310.579 93.9C310.806 94.1933 311.153 94.34 311.619 94.34H311.939C312.379 94.34 312.713 94.2 312.939 93.92C313.166 93.6267 313.279 93.2933 313.279 92.92C313.279 92.4133 313.199 91.9667 313.039 91.58C312.893 91.1933 312.686 90.8467 312.419 90.54C312.166 90.2333 311.866 89.96 311.519 89.72C311.173 89.4667 310.799 89.2333 310.399 89.02C309.666 88.5533 309.119 87.9733 308.759 87.28C308.413 86.5733 308.239 85.8467 308.239 85.1C308.239 84.6733 308.326 84.2533 308.499 83.84C308.673 83.4267 308.919 83.06 309.239 82.74C309.559 82.42 309.946 82.16 310.399 81.96C310.853 81.76 311.359 81.66 311.919 81.66C312.453 81.66 312.926 81.7533 313.339 81.94C313.766 82.1267 314.126 82.38 314.419 82.7C314.713 83.0067 314.933 83.3533 315.079 83.74C315.239 84.1267 315.319 84.52 315.319 84.92C315.319 85.0133 315.279 85.1133 315.199 85.22C315.133 85.3267 315.006 85.38 314.819 85.38H313.799C313.653 85.38 313.539 85.3467 313.459 85.28C313.393 85.2133 313.346 85.1467 313.319 85.08C313.293 84.9733 313.279 84.9067 313.279 84.88C313.279 84.4933 313.179 84.1733 312.979 83.92C312.779 83.6533 312.473 83.52 312.059 83.52H311.759C311.293 83.52 310.926 83.68 310.659 84C310.393 84.3067 310.259 84.6533 310.259 85.04C310.259 85.5333 310.386 86.02 310.639 86.5C310.893 86.9667 311.253 87.34 311.719 87.62C311.879 87.7267 312.033 87.82 312.179 87.9C312.339 87.98 312.493 88.06 312.639 88.14C313.093 88.4067 313.486 88.72 313.819 89.08C314.153 89.44 314.426 89.8333 314.639 90.26C314.866 90.6733 315.033 91.1067 315.139 91.56C315.259 92 315.319 92.44 315.319 92.88C315.319 93.2933 315.233 93.7 315.059 94.1C314.899 94.5 314.666 94.86 314.359 95.18C314.053 95.4867 313.679 95.74 313.239 95.94C312.799 96.1267 312.306 96.22 311.759 96.22C311.199 96.22 310.699 96.12 310.259 95.92C309.833 95.72 309.466 95.46 309.159 95.14C308.866 94.8067 308.639 94.44 308.479 94.04C308.319 93.6267 308.239 93.2133 308.239 92.8C308.239 92.68 308.286 92.56 308.379 92.44C308.473 92.3067 308.626 92.24 308.839 92.24H309.659C309.819 92.24 309.939 92.2733 310.019 92.34C310.113 92.4067 310.173 92.4867 310.199 92.58C310.226 92.62 310.239 92.66 310.239 92.7C310.239 92.74 310.246 92.78 310.259 92.82Z" fill="black"/>
</svg>
